<svg width="36" height="34" viewBox="0 0 36 34" fill="none" xmlns="http://www.w3.org/2000/svg">
<g filter="url(#filter0_dd_8536_1697)">
<path d="M27.5142 14.343L26.5617 13.7211L17.989 8.06784H17.8842C17.8258 8.03853 17.7653 8.01582 17.7033 8H17.5223H17.3508C17.2858 8.01583 17.222 8.03853 17.1603 8.06784H17.0556L8.48288 13.7211C8.33629 13.8197 8.21436 13.9627 8.12953 14.1355C8.0447 14.3083 8 14.5048 8 14.7048C8 14.9048 8.0447 15.1012 8.12953 15.274C8.21436 15.4468 8.33629 15.5898 8.48288 15.6884L10.8547 17.2487V22.608C10.8547 23.5076 11.1557 24.3704 11.6916 25.0065C12.2275 25.6426 12.9543 26 13.7122 26H21.3324C22.0902 26 22.8171 25.6426 23.353 25.0065C23.8889 24.3704 24.1899 23.5076 24.1899 22.608V17.2487L26.095 15.9824V19.2161C26.095 19.5159 26.1953 19.8035 26.3739 20.0156C26.5526 20.2276 26.7949 20.3467 27.0475 20.3467C27.3001 20.3467 27.5424 20.2276 27.721 20.0156C27.8996 19.8035 28 19.5159 28 19.2161V15.3266C27.9997 15.1263 27.9546 14.9296 27.8692 14.7568C27.7839 14.5839 27.6613 14.4411 27.5142 14.343ZM22.2849 22.608C22.2849 22.9079 22.1845 23.1955 22.0059 23.4075C21.8273 23.6196 21.585 23.7387 21.3324 23.7387H13.7122C13.4596 23.7387 13.2173 23.6196 13.0387 23.4075C12.86 23.1955 12.7597 22.9079 12.7597 22.608V18.5038L17.0556 21.3304L17.1984 21.3982H17.2842C17.3632 21.4101 17.4432 21.4101 17.5223 21.3982C17.6014 21.4101 17.6814 21.4101 17.7604 21.3982H17.8461C17.8967 21.3856 17.9451 21.3626 17.989 21.3304L22.2849 18.5038V22.608ZM17.5223 19.0578L10.9118 14.6935L17.5223 10.3291L24.1328 14.6935L17.5223 19.0578Z" fill="#94979E"/>
</g>
<defs>
<filter id="filter0_dd_8536_1697" x="0" y="0" width="36" height="34" filterUnits="userSpaceOnUse" color-interpolation-filters="sRGB">
<feFlood flood-opacity="0" result="BackgroundImageFix"/>
<feColorMatrix in="SourceAlpha" type="matrix" values="0 0 0 0 0 0 0 0 0 0 0 0 0 0 0 0 0 0 127 0" result="hardAlpha"/>
<feOffset/>
<feGaussianBlur stdDeviation="4"/>
<feComposite in2="hardAlpha" operator="out"/>
<feColorMatrix type="matrix" values="0 0 0 0 1 0 0 0 0 0.833333 0 0 0 0 0.925214 0 0 0 0.3 0"/>
<feBlend mode="normal" in2="BackgroundImageFix" result="effect1_dropShadow_8536_1697"/>
<feColorMatrix in="SourceAlpha" type="matrix" values="0 0 0 0 0 0 0 0 0 0 0 0 0 0 0 0 0 0 127 0" result="hardAlpha"/>
<feOffset/>
<feGaussianBlur stdDeviation="0.5"/>
<feComposite in2="hardAlpha" operator="out"/>
<feColorMatrix type="matrix" values="0 0 0 0 1 0 0 0 0 0.770833 0 0 0 0 0.897168 0 0 0 0.7 0"/>
<feBlend mode="normal" in2="effect1_dropShadow_8536_1697" result="effect2_dropShadow_8536_1697"/>
<feBlend mode="normal" in="SourceGraphic" in2="effect2_dropShadow_8536_1697" result="shape"/>
</filter>
</defs>
</svg>
