<svg width="36" height="36" viewBox="0 0 36 36" fill="none" xmlns="http://www.w3.org/2000/svg">
<g filter="url(#filter0_dd_8536_1684)">
<path d="M18 8C16.0605 8.00369 14.1639 8.57131 12.5412 9.63374C10.9186 10.6962 9.63988 12.2075 8.86093 13.9838C8.08197 15.76 7.83636 17.7244 8.15401 19.6378C8.47166 21.5511 9.33887 23.3308 10.65 24.76C11.5864 25.775 12.7229 26.5851 13.9879 27.1392C15.2529 27.6933 16.619 27.9793 18 27.9793C19.381 27.9793 20.7471 27.6933 22.012 27.1392C23.277 26.5851 24.4136 25.775 25.35 24.76C26.6611 23.3308 27.5283 21.5511 27.846 19.6378C28.1636 17.7244 27.918 15.76 27.139 13.9838C26.3601 12.2075 25.0814 10.6962 23.4588 9.63374C21.8361 8.57131 19.9395 8.00369 18 8ZM18 26C15.9285 25.9969 13.9389 25.1903 12.45 23.75C12.902 22.6495 13.671 21.7083 14.6592 21.0459C15.6475 20.3835 16.8103 20.0298 18 20.0298C19.1897 20.0298 20.3525 20.3835 21.3407 21.0459C22.329 21.7083 23.0979 22.6495 23.55 23.75C22.0611 25.1903 20.0715 25.9969 18 26ZM16 16C16 15.6044 16.1173 15.2178 16.337 14.8889C16.5568 14.56 16.8692 14.3036 17.2346 14.1522C17.6001 14.0009 18.0022 13.9613 18.3902 14.0384C18.7781 14.1156 19.1345 14.3061 19.4142 14.5858C19.6939 14.8655 19.8844 15.2219 19.9616 15.6098C20.0387 15.9978 19.9991 16.3999 19.8477 16.7654C19.6964 17.1308 19.44 17.4432 19.1111 17.6629C18.7822 17.8827 18.3955 18 18 18C17.4696 18 16.9608 17.7893 16.5858 17.4142C16.2107 17.0391 16 16.5304 16 16ZM24.91 22C24.0165 20.4718 22.6414 19.283 21 18.62C21.5092 18.0427 21.8409 17.3307 21.9555 16.5694C22.07 15.8082 21.9625 15.0301 21.6457 14.3285C21.329 13.6269 20.8166 13.0316 20.1699 12.614C19.5232 12.1964 18.7698 11.9742 18 11.9742C17.2302 11.9742 16.4768 12.1964 15.8301 12.614C15.1834 13.0316 14.671 13.6269 14.3542 14.3285C14.0375 15.0301 13.93 15.8082 14.0445 16.5694C14.1591 17.3307 14.4908 18.0427 15 18.62C13.3586 19.283 11.9835 20.4718 11.09 22C10.3779 20.7871 10.0017 19.4065 9.99999 18C9.99999 15.8783 10.8428 13.8434 12.3431 12.3431C13.8434 10.8429 15.8783 10 18 10C20.1217 10 22.1566 10.8429 23.6568 12.3431C25.1571 13.8434 26 15.8783 26 18C25.9983 19.4065 25.622 20.7871 24.91 22Z" fill="#94979E"/>
</g>
<defs>
<filter id="filter0_dd_8536_1684" x="0.0189819" y="0" width="35.962" height="35.9793" filterUnits="userSpaceOnUse" color-interpolation-filters="sRGB">
<feFlood flood-opacity="0" result="BackgroundImageFix"/>
<feColorMatrix in="SourceAlpha" type="matrix" values="0 0 0 0 0 0 0 0 0 0 0 0 0 0 0 0 0 0 127 0" result="hardAlpha"/>
<feOffset/>
<feGaussianBlur stdDeviation="4"/>
<feComposite in2="hardAlpha" operator="out"/>
<feColorMatrix type="matrix" values="0 0 0 0 1 0 0 0 0 0.833333 0 0 0 0 0.925214 0 0 0 0.3 0"/>
<feBlend mode="normal" in2="BackgroundImageFix" result="effect1_dropShadow_8536_1684"/>
<feColorMatrix in="SourceAlpha" type="matrix" values="0 0 0 0 0 0 0 0 0 0 0 0 0 0 0 0 0 0 127 0" result="hardAlpha"/>
<feOffset/>
<feGaussianBlur stdDeviation="0.5"/>
<feComposite in2="hardAlpha" operator="out"/>
<feColorMatrix type="matrix" values="0 0 0 0 1 0 0 0 0 0.770833 0 0 0 0 0.897168 0 0 0 0.7 0"/>
<feBlend mode="normal" in2="effect1_dropShadow_8536_1684" result="effect2_dropShadow_8536_1684"/>
<feBlend mode="normal" in="SourceGraphic" in2="effect2_dropShadow_8536_1684" result="shape"/>
</filter>
</defs>
</svg>
