<svg width="35" height="37" viewBox="0 0 35 37" fill="none" xmlns="http://www.w3.org/2000/svg">
<g filter="url(#filter0_dd_8536_1632)">
<path d="M25.0234 14.0239L19.0234 8.76393C18.4734 8.27198 17.7613 8 17.0234 8C16.2855 8 15.5734 8.27198 15.0234 8.76393L9.02341 14.0239C8.70578 14.308 8.45231 14.6565 8.27988 15.0462C8.10745 15.4359 8.02002 15.8578 8.02341 16.2839V25.0239C8.02341 25.8196 8.33948 26.5826 8.90209 27.1453C9.4647 27.7079 10.2278 28.0239 11.0234 28.0239H23.0234C23.8191 28.0239 24.5821 27.7079 25.1447 27.1453C25.7073 26.5826 26.0234 25.8196 26.0234 25.0239V16.2739C26.0254 15.8495 25.9373 15.4295 25.7649 15.0416C25.5925 14.6538 25.3398 14.3069 25.0234 14.0239ZM19.0234 26.0239H15.0234V21.0239C15.0234 20.7587 15.1288 20.5044 15.3163 20.3168C15.5038 20.1293 15.7582 20.0239 16.0234 20.0239H18.0234C18.2886 20.0239 18.543 20.1293 18.7305 20.3168C18.9181 20.5044 19.0234 20.7587 19.0234 21.0239V26.0239Z" fill="white"/>
</g>
<defs>
<filter id="filter0_dd_8536_1632" x="0.0233154" y="0" width="34.0001" height="36.0239" filterUnits="userSpaceOnUse" color-interpolation-filters="sRGB">
<feFlood flood-opacity="0" result="BackgroundImageFix"/>
<feColorMatrix in="SourceAlpha" type="matrix" values="0 0 0 0 0 0 0 0 0 0 0 0 0 0 0 0 0 0 127 0" result="hardAlpha"/>
<feOffset/>
<feGaussianBlur stdDeviation="4"/>
<feComposite in2="hardAlpha" operator="out"/>
<feColorMatrix type="matrix" values="0 0 0 0 1 0 0 0 0 0.833333 0 0 0 0 0.925214 0 0 0 0.3 0"/>
<feBlend mode="normal" in2="BackgroundImageFix" result="effect1_dropShadow_8536_1632"/>
<feColorMatrix in="SourceAlpha" type="matrix" values="0 0 0 0 0 0 0 0 0 0 0 0 0 0 0 0 0 0 127 0" result="hardAlpha"/>
<feOffset/>
<feGaussianBlur stdDeviation="0.5"/>
<feComposite in2="hardAlpha" operator="out"/>
<feColorMatrix type="matrix" values="0 0 0 0 1 0 0 0 0 0.770833 0 0 0 0 0.897168 0 0 0 0.7 0"/>
<feBlend mode="normal" in2="effect1_dropShadow_8536_1632" result="effect2_dropShadow_8536_1632"/>
<feBlend mode="normal" in="SourceGraphic" in2="effect2_dropShadow_8536_1632" result="shape"/>
</filter>
</defs>
</svg>
