<svg width="21" height="20" viewBox="0 0 21 20" fill="none" xmlns="http://www.w3.org/2000/svg">
<g clip-path="url(#clip0_8536_1654)">
<g filter="url(#filter0_dd_8536_1654)">
<path d="M11.2561 11.9508C11.2402 11.6782 11.2242 11.4027 11.2033 11.1317C14.2818 10.6745 16.6234 13.0202 16.4396 15.6321L16.4396 15.6321C16.3702 16.6191 16.3875 17.6204 16.405 18.6296C16.4112 18.9855 16.4174 19.3424 16.4198 19.7H3.68836C3.68696 19.2767 3.6829 18.8606 3.67889 18.4496C3.66826 17.3592 3.65797 16.3049 3.69862 15.2477C3.75419 13.8486 4.3478 12.7448 5.32002 12.0277C6.23823 11.3504 7.519 11.0006 9.05549 11.1057C9.02036 11.4397 8.98692 11.7726 8.95356 12.1046C8.85298 13.1059 8.75321 14.0991 8.61038 15.0893C8.51896 15.721 8.70842 16.19 8.9853 16.5832C9.11944 16.7738 9.27522 16.9483 9.42261 17.1109C9.43665 17.1263 9.4506 17.1417 9.46447 17.157C9.59993 17.3062 9.72745 17.4466 9.84334 17.5967L10.0278 17.8358L10.2657 17.6497C10.8075 17.2258 11.2195 16.7618 11.4465 16.2064C11.6753 15.6465 11.7032 15.0252 11.5321 14.3118L11.5321 14.3116C11.4011 13.7677 11.3396 13.2017 11.2979 12.6192C11.2822 12.4012 11.2692 12.177 11.2561 11.9508Z" stroke="#94979E" stroke-width="0.6" shape-rendering="crispEdges"/>
</g>
<path d="M10.2319 8.89002L13.2273 5.42738C13.7292 6.79297 13.1459 8.31989 11.8354 9.13491C11.1066 9.58059 10.2357 9.73304 9.39881 9.56146C8.56158 9.38981 7.82074 8.90668 7.32608 8.20973C6.83142 7.51278 6.61983 6.65401 6.7341 5.80703C6.84832 4.96033 7.27966 4.18855 7.94096 3.64762C9.28974 2.55807 11.0908 2.6414 12.3973 3.86658L10.202 5.5532C9.91828 5.34267 9.67971 5.17349 9.47473 5.04883C9.23114 4.90068 9.00225 4.79434 8.77503 4.77293C8.52681 4.74954 8.31981 4.83005 8.13455 4.97076C7.96274 5.10126 7.79753 5.293 7.6206 5.51095L7.47611 5.68894L7.6099 5.87511L9.76138 8.86882L9.98321 9.17748L10.2319 8.89002Z" stroke="#94979E" stroke-width="0.6"/>
<path d="M10.486 -0.0039978V1.8521L10.2864 2.05168C10.0868 1.8521 9.7096 1.62658 9.73155 1.45294C9.78744 0.93403 9.24857 0.0638597 10.486 -0.0039978Z" fill="#94979E"/>
<path d="M5.83773 5.1851C6.12912 5.88563 5.73794 6.0453 5.20706 5.93153C4.756 5.83374 3.83993 6.42051 3.96766 5.1851H5.83773Z" fill="#94979E"/>
<path d="M16.2359 5.1851C16.4195 6.27282 15.6252 5.89361 15.1881 5.93752C14.751 5.98143 14.1083 6.08322 14.3898 5.1851H16.2359Z" fill="#94979E"/>
<path d="M17.4692 15.5505L17.4692 15.5501C17.5308 14.6619 17.3398 13.7782 16.9239 12.9992C18.7549 13.1093 20.0482 14.6201 19.9322 16.2768C19.8808 17.0065 19.8941 17.7497 19.9074 18.4944C19.9117 18.7326 19.9159 18.9709 19.9181 19.209H17.447C17.444 18.9548 17.4397 18.7035 17.4354 18.4547C17.4183 17.4612 17.4019 16.5059 17.4692 15.5505Z" stroke="#94979E" stroke-width="0.6"/>
<path d="M17.7301 9.36018C17.7298 9.9227 17.535 10.4678 17.1787 10.9031C16.855 11.2987 16.4159 11.5815 15.9247 11.7135C15.137 10.9831 14.1385 10.52 13.0721 10.3903C12.9558 10.1428 12.8827 9.87722 12.8559 9.60511C13.2657 9.30999 13.6137 8.93636 13.8791 8.50533C14.145 8.07359 14.3222 7.59386 14.4012 7.09416C14.6861 6.97981 14.991 6.9212 15.299 6.9221C15.9444 6.92398 16.5628 7.18169 17.0185 7.63875C17.4742 8.09576 17.7301 8.7148 17.7301 9.36018Z" stroke="#94979E" stroke-width="0.6"/>
<path d="M3.11265 13.0487C2.85309 13.6408 2.71083 14.2795 2.69586 14.9292C2.65357 15.9871 2.66386 17.0511 2.67434 18.1341C2.67778 18.4902 2.68124 18.8484 2.68287 19.209H0.313286C0.311885 18.8962 0.308587 18.5888 0.30533 18.2854C0.296979 17.5072 0.288902 16.7546 0.313792 15.9992C0.349026 15.0976 0.692269 14.372 1.25602 13.8621C1.72082 13.4418 2.35008 13.1552 3.11265 13.0487Z" stroke="#94979E" stroke-width="0.6"/>
<path d="M4.94533 6.9221L4.94601 6.9221C5.22751 6.92176 5.50648 6.97065 5.77041 7.06614C5.87566 7.67168 6.11845 8.24588 6.48102 8.74411C6.72764 9.08565 7.02718 9.38514 7.36799 9.63145C7.34494 9.84225 7.29403 10.0491 7.2166 10.2465C5.95201 10.3999 4.87818 10.884 4.09272 11.6456C3.60043 11.4625 3.17877 11.1246 2.89273 10.6803C2.57491 10.1867 2.44586 9.59501 2.52928 9.01389C2.61269 8.43277 2.90298 7.90126 3.34683 7.51699C3.79066 7.13272 4.35825 6.92149 4.94533 6.9221Z" stroke="#94979E" stroke-width="0.6"/>
</g>
<defs>
<filter id="filter0_dd_8536_1654" x="-4.63062" y="2.77435" width="29.3804" height="25.2256" filterUnits="userSpaceOnUse" color-interpolation-filters="sRGB">
<feFlood flood-opacity="0" result="BackgroundImageFix"/>
<feColorMatrix in="SourceAlpha" type="matrix" values="0 0 0 0 0 0 0 0 0 0 0 0 0 0 0 0 0 0 127 0" result="hardAlpha"/>
<feOffset/>
<feGaussianBlur stdDeviation="4"/>
<feComposite in2="hardAlpha" operator="out"/>
<feColorMatrix type="matrix" values="0 0 0 0 1 0 0 0 0 0.833333 0 0 0 0 0.925214 0 0 0 0.3 0"/>
<feBlend mode="normal" in2="BackgroundImageFix" result="effect1_dropShadow_8536_1654"/>
<feColorMatrix in="SourceAlpha" type="matrix" values="0 0 0 0 0 0 0 0 0 0 0 0 0 0 0 0 0 0 127 0" result="hardAlpha"/>
<feOffset/>
<feGaussianBlur stdDeviation="0.5"/>
<feComposite in2="hardAlpha" operator="out"/>
<feColorMatrix type="matrix" values="0 0 0 0 1 0 0 0 0 0.770833 0 0 0 0 0.897168 0 0 0 0.7 0"/>
<feBlend mode="normal" in2="effect1_dropShadow_8536_1654" result="effect2_dropShadow_8536_1654"/>
<feBlend mode="normal" in="SourceGraphic" in2="effect2_dropShadow_8536_1654" result="shape"/>
</filter>
<clipPath id="clip0_8536_1654">
<rect width="20.2395" height="20" fill="white"/>
</clipPath>
</defs>
</svg>
