<svg width="36" height="36" viewBox="0 0 36 36" fill="none" xmlns="http://www.w3.org/2000/svg">
<g filter="url(#filter0_dd_1403_53377)">
<path d="M18.59 19.0001L16.29 21.2901C16.1963 21.3831 16.1219 21.4937 16.0711 21.6155C16.0203 21.7374 15.9942 21.8681 15.9942 22.0001C15.9942 22.1321 16.0203 22.2628 16.0711 22.3847C16.1219 22.5065 16.1963 22.6171 16.29 22.7101C16.383 22.8038 16.4936 22.8782 16.6154 22.929C16.7373 22.9798 16.868 23.0059 17 23.0059C17.132 23.0059 17.2627 22.9798 17.3846 22.929C17.5064 22.8782 17.617 22.8038 17.71 22.7101L21.71 18.7101C21.801 18.615 21.8724 18.5029 21.92 18.3801C22.02 18.1366 22.02 17.8636 21.92 17.6201C21.8724 17.4973 21.801 17.3852 21.71 17.2901L17.71 13.2901C17.6168 13.1969 17.5061 13.1229 17.3842 13.0724C17.2624 13.022 17.1319 12.996 17 12.996C16.8681 12.996 16.7376 13.022 16.6158 13.0724C16.4939 13.1229 16.3832 13.1969 16.29 13.2901C16.1968 13.3833 16.1228 13.494 16.0723 13.6159C16.0219 13.7377 15.9959 13.8682 15.9959 14.0001C15.9959 14.132 16.0219 14.2625 16.0723 14.3843C16.1228 14.5062 16.1968 14.6169 16.29 14.7101L18.59 17.0001H9C8.73478 17.0001 8.48043 17.1055 8.29289 17.293C8.10536 17.4805 8 17.7349 8 18.0001C8 18.2653 8.10536 18.5197 8.29289 18.7072C8.48043 18.8947 8.73478 19.0001 9 19.0001H18.59ZM18 8.0001C16.1311 7.99176 14.2972 8.50731 12.7065 9.48829C11.1157 10.4693 9.83165 11.8764 9 13.5501C8.88065 13.7888 8.86101 14.0651 8.94541 14.3183C9.0298 14.5715 9.21131 14.7808 9.45 14.9001C9.68869 15.0194 9.96502 15.0391 10.2182 14.9547C10.4714 14.8703 10.6807 14.6888 10.8 14.4501C11.4322 13.1734 12.3938 12.0887 13.5855 11.3081C14.7773 10.5275 16.1558 10.0792 17.5788 10.0097C19.0017 9.94017 20.4174 10.2519 21.6795 10.9126C22.9417 11.5733 24.0045 12.5591 24.7581 13.7681C25.5118 14.9771 25.9289 16.3653 25.9664 17.7895C26.0039 19.2136 25.6605 20.6219 24.9715 21.8689C24.2826 23.1159 23.2731 24.1563 22.0475 24.8825C20.8219 25.6088 19.4246 25.9946 18 26.0001C16.5089 26.0066 15.0462 25.5925 13.7797 24.8053C12.5132 24.0182 11.4944 22.89 10.84 21.5501C10.7207 21.3114 10.5114 21.1299 10.2582 21.0455C10.005 20.9611 9.72869 20.9808 9.49 21.1001C9.25131 21.2194 9.0698 21.4287 8.98541 21.6819C8.90101 21.9351 8.92065 22.2114 9.04 22.4501C9.83283 24.0456 11.0375 25.4003 12.5295 26.3741C14.0214 27.348 15.7464 27.9055 17.5261 27.9891C19.3058 28.0727 21.0755 27.6793 22.6521 26.8496C24.2288 26.0199 25.5552 24.7841 26.4941 23.2699C27.433 21.7558 27.9503 20.0182 27.9925 18.2371C28.0347 16.456 27.6003 14.6959 26.7342 13.1389C25.8682 11.582 24.6018 10.2847 23.0663 9.38121C21.5307 8.47774 19.7816 8.00094 18 8.0001Z" fill="white"/>
</g>
<defs>
<filter id="filter0_dd_1403_53377" x="0" y="0" width="35.9951" height="36" filterUnits="userSpaceOnUse" color-interpolation-filters="sRGB">
<feFlood flood-opacity="0" result="BackgroundImageFix"/>
<feColorMatrix in="SourceAlpha" type="matrix" values="0 0 0 0 0 0 0 0 0 0 0 0 0 0 0 0 0 0 127 0" result="hardAlpha"/>
<feOffset/>
<feGaussianBlur stdDeviation="4"/>
<feComposite in2="hardAlpha" operator="out"/>
<feColorMatrix type="matrix" values="0 0 0 0 1 0 0 0 0 0.833333 0 0 0 0 0.925214 0 0 0 0.3 0"/>
<feBlend mode="normal" in2="BackgroundImageFix" result="effect1_dropShadow_1403_53377"/>
<feColorMatrix in="SourceAlpha" type="matrix" values="0 0 0 0 0 0 0 0 0 0 0 0 0 0 0 0 0 0 127 0" result="hardAlpha"/>
<feOffset/>
<feGaussianBlur stdDeviation="0.5"/>
<feComposite in2="hardAlpha" operator="out"/>
<feColorMatrix type="matrix" values="0 0 0 0 1 0 0 0 0 0.770833 0 0 0 0 0.897168 0 0 0 0.7 0"/>
<feBlend mode="normal" in2="effect1_dropShadow_1403_53377" result="effect2_dropShadow_1403_53377"/>
<feBlend mode="normal" in="SourceGraphic" in2="effect2_dropShadow_1403_53377" result="shape"/>
</filter>
</defs>
</svg>
