<svg width="24" height="24" viewBox="0 0 24 24" fill="none" xmlns="http://www.w3.org/2000/svg">
<g clip-path="url(#clip0_8536_1636)">
<g filter="url(#filter0_dd_8536_1636)">
<path d="M19.5915 22.0042H4.37971C4.19768 21.8919 4.06247 21.7494 4.11967 21.5149C4.22057 21.0989 4.29546 20.6736 4.44367 20.2753C4.66418 19.6836 4.93877 19.1117 5.1806 18.5543C4.98402 18.2111 4.76455 17.8607 4.57941 17.4925C4.46604 17.2669 4.465 16.9611 4.30742 16.788C4.14984 16.6149 3.84924 16.5629 3.6225 16.4386C2.87205 16.0278 2.21105 15.5318 2.00146 14.6338V5.70364C2.132 5.07605 2.48876 4.5951 2.97814 4.20149C3.46752 3.80789 4.00682 3.52555 4.57785 3.2843C5.83848 2.75602 7.16047 2.46173 8.50847 2.27611C9.06806 2.19915 9.6318 2.1534 10.1945 2.10348C10.441 2.08164 10.6106 2.22723 10.6319 2.44613C10.6532 2.66503 10.5169 2.83194 10.2725 2.87197C10.234 2.87821 10.195 2.88237 10.1565 2.88653C9.62712 2.94165 9.0951 2.9822 8.56828 3.055C7.29153 3.2323 6.03922 3.51152 4.84724 4.01847C4.25229 4.27169 3.68646 4.57222 3.22465 5.03758C3.07899 5.17658 2.96391 5.3444 2.88672 5.53034C2.80954 5.71628 2.77195 5.91625 2.77636 6.11752C2.7878 8.28157 2.78156 10.4456 2.78156 12.6097V12.8176C2.81276 12.813 2.82784 12.8176 2.83356 12.8088C3.61365 12.1391 4.53104 11.7377 5.49524 11.4283C7.41686 10.8122 9.3957 10.5709 11.4057 10.5314C13.6774 10.4867 15.923 10.6749 18.1145 11.3155C19.2119 11.6363 20.2613 12.0601 21.147 12.813C21.1527 12.8176 21.1694 12.8104 21.1907 12.8067V12.5987C21.1907 10.4347 21.1855 8.27065 21.1954 6.1066C21.199 5.91505 21.164 5.72473 21.0925 5.54697C21.021 5.36922 20.9145 5.20765 20.7793 5.07189C20.4397 4.71261 20.0289 4.45211 19.5905 4.23425C18.3496 3.61863 17.0203 3.29833 15.6609 3.09555C15.0259 3.0004 14.3831 2.95309 13.745 2.87717C13.499 2.84805 13.3513 2.67699 13.3658 2.46433C13.382 2.23763 13.5567 2.09308 13.8126 2.10608C14.0071 2.11596 14.2011 2.13468 14.3956 2.15236C15.8159 2.28131 17.2143 2.52516 18.5706 2.97648C19.487 3.2817 20.368 3.66074 21.109 4.30184C21.678 4.79424 21.9838 5.39374 21.9781 6.17367C21.9588 8.87743 21.9666 11.5812 21.9739 14.2849C21.983 14.7704 21.8037 15.2406 21.4736 15.5968C21.0767 16.0296 20.588 16.3684 20.0434 16.5883C19.735 16.7178 19.5083 16.8733 19.4896 17.2331C19.4842 17.2785 19.4693 17.3223 19.4459 17.3615C19.2275 17.7702 19.0075 18.1778 18.7698 18.6167C19.4214 19.8349 19.5905 20.2769 19.8245 21.401C19.8963 21.7348 19.8645 21.817 19.5915 22.0042ZM4.99962 21.2159H18.9653C18.8525 19.1361 15.9261 16.0528 13.9072 15.8776C13.7361 17.2107 13.0876 17.9241 12.0215 17.9423C11.5682 17.9549 11.1261 17.8001 10.7796 17.5076C10.2684 17.0838 10.0629 16.5197 10.0765 15.8682C7.66597 16.4526 5.49992 18.638 4.99962 21.2159ZM8.16783 11.6082C8.37014 13.4135 10.0328 15.1278 12.347 14.9432C14.0971 14.8039 15.8907 13.0657 15.7862 11.6035C13.7034 11.2027 10.2106 11.2099 8.16783 11.6082ZM9.70253 15.1439C9.08074 14.7907 8.54829 14.2996 8.14617 13.7084C7.74405 13.1171 7.48298 12.4415 7.38306 11.7335L6.62793 11.914C6.62689 12.0456 6.63401 12.1773 6.64925 12.3081C6.79539 13.1052 6.55616 13.7494 5.95289 14.2979C5.22949 14.9562 4.98142 15.7975 5.16136 16.7568C5.23774 17.1744 5.42633 17.5633 5.7069 17.882C6.75899 16.5587 8.07526 15.655 9.70253 15.1418V15.1439ZM16.5881 11.7367C16.3401 13.2326 15.5751 14.3505 14.277 15.1455C15.0643 15.3862 15.8106 15.7449 16.4904 16.2093C17.1616 16.6762 17.7606 17.2393 18.2679 17.8804C19.164 16.8234 19.0402 15.2157 17.9876 14.2652C17.4052 13.739 17.1857 13.1083 17.3173 12.3414C17.3341 12.1979 17.3427 12.0537 17.3433 11.9093L16.5881 11.7367ZM19.6565 15.9181C20.1511 15.6774 20.5989 15.4294 20.9353 15.0248C21.2385 14.6609 21.2729 14.2969 21.0326 13.8903C20.7154 13.3558 20.2073 13.0485 19.6565 12.7511V15.9181ZM4.30586 15.915V12.7589C4.23981 12.7922 4.19248 12.8109 4.14984 12.8384C3.69478 13.0984 3.26001 13.3807 2.97034 13.8331C2.71499 14.2314 2.71031 14.587 2.97034 14.9401C3.30682 15.4002 3.78944 15.6623 4.30794 15.915H4.30586ZM13.1037 15.6394C12.722 15.6717 12.3543 15.7273 11.9872 15.7268C11.62 15.7263 11.245 15.6701 10.8711 15.6384C10.8222 16.1693 10.8831 16.6668 11.3912 16.9851C11.7838 17.232 12.1931 17.232 12.5873 16.9851C13.0887 16.6674 13.1505 16.1698 13.1037 15.6394ZM18.8473 13.9756C18.8473 13.9756 18.8608 13.9662 18.8608 13.9569C18.8634 13.465 18.8665 12.9731 18.8608 12.4812C18.8582 12.4577 18.8501 12.4352 18.8372 12.4154C18.8243 12.3957 18.8069 12.3792 18.7864 12.3674C18.5717 12.2821 18.3527 12.2077 18.1535 12.1365C17.8727 12.9549 18.1962 13.5347 18.8452 13.9771L18.8473 13.9756ZM5.81871 12.1443C5.64865 12.2031 5.46247 12.2753 5.27161 12.3304C5.14524 12.3668 5.09791 12.4277 5.10207 12.5634C5.11247 12.8998 5.10519 13.2362 5.10519 13.5726C5.10519 13.7114 5.10519 13.8497 5.10519 13.9886C5.77711 13.5347 6.09643 12.9539 5.81871 12.1443Z" fill="#94979E"/>
</g>
<path d="M16.5169 7.04355C16.5169 7.8883 16.5169 8.73322 16.5169 9.57832C16.5169 9.96308 16.3437 10.1082 15.9677 10.0588C14.0329 9.80657 12.0783 9.74197 10.1311 9.86585C9.40297 9.91109 8.68216 9.99532 7.95824 10.065C7.6462 10.0952 7.46262 9.93657 7.4621 9.61836C7.4621 7.88968 7.4621 6.16084 7.4621 4.43182C7.4621 4.15573 7.56611 4.03302 7.84226 3.97946C9.50646 3.65501 11.192 3.55362 12.8869 3.6155C13.9391 3.65212 14.9873 3.76472 16.0233 3.95243C16.4436 4.02938 16.5179 4.11569 16.5179 4.54777C16.5172 5.3797 16.5169 6.21162 16.5169 7.04355ZM8.24791 9.18471C9.4997 9.13272 10.7442 9.03705 11.9872 9.03705C13.2301 9.03705 14.4736 9.13168 15.7233 9.18523V4.69024C13.2489 4.27156 10.7218 4.27156 8.24739 4.69024L8.24791 9.18471Z" fill="#94979E"/>
<path d="M6.68099 7.37268C6.68099 8.19733 6.68099 9.02198 6.68099 9.84662C6.68099 10.1742 6.59622 10.2823 6.2717 10.3598C5.53218 10.5361 4.80461 10.7394 4.13373 11.1148C3.85394 11.2708 3.56166 11.0747 3.56166 10.7415C3.5575 10.0468 3.56166 9.35215 3.56166 8.65749C3.56166 7.78761 3.56478 6.9172 3.56166 6.04732C3.5577 5.96008 3.57515 5.8732 3.6125 5.79426C3.64985 5.71532 3.70596 5.64672 3.77593 5.59444C4.48945 5.01574 5.31843 4.66997 6.18225 4.39855C6.46153 4.31016 6.68255 4.50254 6.68359 4.82335C6.68255 5.6714 6.68099 6.52204 6.68099 7.37268ZM4.34072 10.1154L5.89518 9.62616V5.32303C5.39622 5.4969 4.92154 5.73384 4.48269 6.02808C4.4338 6.05767 4.39425 6.10044 4.36858 6.15148C4.34292 6.20253 4.33218 6.25978 4.3376 6.31666C4.3428 7.52503 4.34072 8.7334 4.34072 9.94177V10.1154Z" fill="#94979E"/>
<path d="M17.2969 7.38048C17.2969 6.55514 17.2969 5.7298 17.2969 4.90446C17.2969 4.45834 17.5122 4.30131 17.9314 4.43962C18.7058 4.69544 19.4448 5.01989 20.1037 5.51332C20.3273 5.68075 20.4189 5.87261 20.4157 6.15702C20.4033 7.65813 20.41 9.15975 20.41 10.6609C20.41 11.121 20.1354 11.2848 19.7339 11.0623C19.1135 10.7207 18.4385 10.5345 17.7546 10.3738C17.3692 10.2834 17.2959 10.1898 17.2959 9.79878C17.2962 8.9925 17.2966 8.1864 17.2969 7.38048ZM18.077 5.3199C18.077 5.43065 18.077 5.50188 18.077 5.5726C18.077 6.77369 18.077 7.97495 18.077 9.17639C18.077 9.63603 18.077 9.63603 18.5274 9.76186C18.5524 9.76862 18.5794 9.77746 18.6018 9.78526L19.6143 10.1154C19.6209 10.1028 19.6257 10.0893 19.6284 10.0754C19.6284 8.79631 19.6284 7.51722 19.6284 6.23814C19.6279 6.21052 19.6218 6.18329 19.6107 6.15803C19.5995 6.13276 19.5834 6.10997 19.5634 6.09099C19.1198 5.75718 18.6252 5.52216 18.077 5.31938V5.3199Z" fill="#94979E"/>
<path d="M12.3839 2.42271C12.3853 2.47316 12.3767 2.5234 12.3586 2.57052C12.3405 2.61764 12.3133 2.66073 12.2785 2.6973C12.2437 2.73388 12.2021 2.76322 12.1559 2.78364C12.1097 2.80406 12.06 2.81517 12.0095 2.81631C11.9061 2.81755 11.8064 2.77766 11.7323 2.7054C11.6583 2.63315 11.616 2.53445 11.6148 2.43103C11.6135 2.3276 11.6534 2.22792 11.7257 2.15391C11.798 2.0799 11.8967 2.03762 12.0001 2.03638C12.0508 2.0361 12.1011 2.04592 12.1479 2.06527C12.1948 2.08462 12.2373 2.11311 12.2731 2.14907C12.3088 2.18504 12.337 2.22776 12.356 2.27474C12.3751 2.32172 12.3846 2.37202 12.3839 2.42271Z" fill="#94979E"/>
<path d="M11.9887 13.5066C11.6628 13.5096 11.3487 13.3847 11.114 13.1587C10.9392 12.9934 10.9267 12.7682 11.0739 12.6029C11.2122 12.4469 11.4333 12.4339 11.6179 12.5691C11.9128 12.7849 12.0615 12.7854 12.3512 12.5691C12.5348 12.4334 12.7563 12.4453 12.8957 12.5992C13.0439 12.763 13.033 12.9902 12.8593 13.1561C12.6268 13.3834 12.3138 13.5094 11.9887 13.5066Z" fill="#94979E"/>
</g>
<defs>
<filter id="filter0_dd_8536_1636" x="-5.99854" y="-5.89868" width="35.9767" height="35.9029" filterUnits="userSpaceOnUse" color-interpolation-filters="sRGB">
<feFlood flood-opacity="0" result="BackgroundImageFix"/>
<feColorMatrix in="SourceAlpha" type="matrix" values="0 0 0 0 0 0 0 0 0 0 0 0 0 0 0 0 0 0 127 0" result="hardAlpha"/>
<feOffset/>
<feGaussianBlur stdDeviation="4"/>
<feComposite in2="hardAlpha" operator="out"/>
<feColorMatrix type="matrix" values="0 0 0 0 1 0 0 0 0 0.833333 0 0 0 0 0.925214 0 0 0 0.3 0"/>
<feBlend mode="normal" in2="BackgroundImageFix" result="effect1_dropShadow_8536_1636"/>
<feColorMatrix in="SourceAlpha" type="matrix" values="0 0 0 0 0 0 0 0 0 0 0 0 0 0 0 0 0 0 127 0" result="hardAlpha"/>
<feOffset/>
<feGaussianBlur stdDeviation="0.5"/>
<feComposite in2="hardAlpha" operator="out"/>
<feColorMatrix type="matrix" values="0 0 0 0 1 0 0 0 0 0.770833 0 0 0 0 0.897168 0 0 0 0.7 0"/>
<feBlend mode="normal" in2="effect1_dropShadow_8536_1636" result="effect2_dropShadow_8536_1636"/>
<feBlend mode="normal" in="SourceGraphic" in2="effect2_dropShadow_8536_1636" result="shape"/>
</filter>
<clipPath id="clip0_8536_1636">
<rect width="20.0042" height="20.0042" fill="white" transform="translate(2.00043 2)"/>
</clipPath>
</defs>
</svg>
