<svg width="20" height="20" viewBox="0 0 20 20" fill="none" xmlns="http://www.w3.org/2000/svg">
<g clip-path="url(#clip0_8536_1676)">
<g filter="url(#filter0_dd_8536_1676)">
<path d="M9.99399 20.0001H3.00265C2.59563 20.0001 2.33663 19.7079 2.33663 19.2448C2.33663 16.4148 2.33663 13.5852 2.33663 10.7559C2.33663 10.6431 2.31443 10.5956 2.21082 10.565C1.61978 10.3911 1.09015 10.0136 0.694169 9.48386C0.298189 8.95413 0.0551359 8.29799 -0.00184108 7.60493C-0.0206774 7.41946 0.0140736 7.23205 0.097136 7.07115C1.22505 4.8474 2.35143 2.6226 3.47626 0.396747C3.53336 0.271656 3.62067 0.167827 3.72788 0.0975369C3.83509 0.0272469 3.9577 -0.00656543 4.08123 0.000100836C8.02369 0.000100836 11.9662 0.000100836 15.9086 0.000100836C16.0339 -0.00622678 16.1581 0.0284572 16.2666 0.100051C16.3751 0.171645 16.4634 0.27716 16.521 0.404132C17.6452 2.62577 18.7707 4.84635 19.8973 7.06588C19.987 7.25549 20.0158 7.4749 19.9787 7.68616C19.9126 8.30385 19.6999 8.88924 19.3636 9.37929C18.9713 9.95378 18.4259 10.3673 17.8095 10.5576C17.656 10.6061 17.656 10.6061 17.656 10.795C17.656 13.5954 17.656 16.3962 17.656 19.1973C17.656 19.7174 17.4081 20.0012 16.952 20.0012L9.99399 20.0001ZM10.0143 1.43372C8.18403 1.43372 6.35371 1.43372 4.52339 1.43372C4.48891 1.42886 4.45397 1.43642 4.42345 1.45533C4.39293 1.47425 4.36836 1.50358 4.35318 1.53921C4.12193 2.00654 3.88512 2.46859 3.64924 2.93275C2.87468 4.46166 2.10074 5.99198 1.32742 7.52371C1.29728 7.57804 1.28363 7.64216 1.28857 7.70621C1.37728 8.16179 1.60605 8.5661 1.9335 8.846C2.26095 9.12589 2.66543 9.26288 3.07376 9.23215C3.48209 9.20143 3.86729 9.00504 4.15966 8.67851C4.45202 8.35198 4.63224 7.91689 4.66769 7.45197C4.67833 7.32949 4.70975 7.21054 4.7602 7.10174C4.82717 6.97046 4.92995 6.86776 5.05287 6.80929C5.17578 6.75082 5.31209 6.73979 5.44102 6.77788C5.5762 6.81212 5.69789 6.89577 5.78755 7.01611C5.87722 7.13646 5.92996 7.28691 5.93775 7.44459C6.01638 8.5111 6.84613 9.33076 7.75821 9.23793C8.63421 9.15354 9.26692 8.43093 9.36128 7.40872C9.37309 7.2276 9.44541 7.05856 9.56331 6.93647C9.68121 6.81438 9.8357 6.74855 9.99492 6.75257C10.154 6.75398 10.3069 6.82298 10.4237 6.94607C10.5405 7.06916 10.6129 7.23751 10.6267 7.41821C10.6313 7.47518 10.6378 7.5332 10.6452 7.59017C10.7129 8.07166 10.9355 8.50713 11.2695 8.8116C11.6035 9.11606 12.025 9.26768 12.4518 9.23687C13.3296 9.15037 13.9605 8.42671 14.0493 7.40344C14.0619 7.23312 14.1278 7.07365 14.235 6.95416C14.3421 6.83466 14.4834 6.76311 14.633 6.75257C14.7881 6.74135 14.9415 6.79411 15.0653 6.9012C15.1891 7.0083 15.275 7.1626 15.3073 7.33593C15.3194 7.4045 15.3221 7.47518 15.3305 7.54691C15.3826 8.00241 15.5739 8.42233 15.8709 8.73269C16.1678 9.04305 16.5513 9.22394 16.9537 9.24348C17.3562 9.26302 17.7517 9.11997 18.0707 8.83952C18.3897 8.55907 18.6117 8.15922 18.6976 7.71042C18.7097 7.63843 18.6996 7.56386 18.6689 7.49944C17.6649 5.5127 16.6594 3.52701 15.6524 1.54238C15.6363 1.50284 15.6099 1.46996 15.5768 1.44823C15.5436 1.42651 15.5054 1.41702 15.4674 1.42106C13.6512 1.4302 11.8333 1.43407 10.0134 1.43267L10.0143 1.43372ZM14.6885 9.38245C14.0752 10.219 13.301 10.6779 12.3454 10.6779C11.3899 10.6779 10.6101 10.2158 9.99955 9.37823C9.38163 10.2222 8.60738 10.6789 7.6509 10.6779C6.69443 10.6768 5.9211 10.2148 5.31059 9.37929C5.28839 9.40672 5.27081 9.42676 5.25509 9.44786C4.85421 10.0035 4.30753 10.3977 3.69549 10.5724C3.60854 10.5977 3.59466 10.6441 3.59466 10.7348C3.59466 13.3004 3.59466 15.8673 3.59466 18.4357C3.59466 18.4789 3.59466 18.5222 3.60114 18.5654H10.1855C10.1855 18.5042 10.1855 18.4515 10.1855 18.3988C10.1855 16.7447 10.1855 15.092 10.1855 13.4407C10.1855 12.9681 10.4408 12.678 10.8552 12.678H14.2954C14.7237 12.678 14.9743 12.9649 14.9743 13.4565C14.9743 15.1106 14.9743 16.7633 14.9743 18.4146V18.5644H16.4072V18.4325C16.4072 15.867 16.4072 13.3 16.4072 10.7317C16.4072 10.6357 16.3822 10.5967 16.3018 10.5734C15.7647 10.4214 15.2763 10.0992 14.8929 9.64407C14.8254 9.55862 14.7607 9.47107 14.6876 9.38034L14.6885 9.38245ZM11.4509 14.1V18.5623H13.7145V14.1H11.4509Z" fill="#94979E"/>
</g>
<path d="M7.14862 2.97273C7.13591 3.05746 7.11892 3.14129 7.09774 3.2238C6.86772 3.96997 6.63616 4.71508 6.40305 5.45915C6.3589 5.61129 6.27084 5.74189 6.15325 5.82963C6.03565 5.91737 5.89546 5.95709 5.75553 5.9423C5.61933 5.93121 5.4904 5.86798 5.38966 5.76285C5.28892 5.65773 5.22227 5.51688 5.20051 5.36315C5.18258 5.23908 5.19018 5.11196 5.22271 4.99182C5.44935 4.23651 5.68523 3.48331 5.92111 2.73116C5.96971 2.57169 6.06675 2.43733 6.19468 2.35239C6.32262 2.26745 6.47298 2.23753 6.61858 2.26805C6.76429 2.29863 6.8964 2.38527 6.99286 2.51351C7.08932 2.64176 7.14429 2.80384 7.14862 2.97273Z" fill="#94979E"/>
<path d="M14.8319 5.2334C14.829 5.40394 14.774 5.56798 14.6764 5.69722C14.5788 5.82645 14.4447 5.91276 14.2972 5.94124C14.1513 5.96859 14.0015 5.93614 13.8745 5.84963C13.7476 5.76313 13.6515 5.62816 13.6034 5.46864C13.4277 4.91481 13.2575 4.35888 13.0845 3.804C13.0244 3.60989 12.9615 3.41685 12.9051 3.22169C12.878 3.1331 12.8664 3.03929 12.8711 2.94562C12.8758 2.85195 12.8967 2.76025 12.9324 2.67576C12.9682 2.59127 13.0182 2.51565 13.0797 2.45321C13.1411 2.39076 13.2126 2.34272 13.2903 2.31183C13.368 2.28094 13.4503 2.26779 13.5324 2.27316C13.6145 2.27852 13.695 2.30228 13.769 2.34308C13.8431 2.38387 13.9094 2.44092 13.9642 2.51094C14.0189 2.58097 14.0611 2.66261 14.0882 2.7512C14.3213 3.49104 14.5516 4.23229 14.7792 4.97494C14.8011 5.05986 14.8187 5.14616 14.8319 5.2334Z" fill="#94979E"/>
<path d="M9.37705 4.1479C9.37705 3.76497 9.37705 3.38098 9.37705 2.99805C9.37632 2.90413 9.39182 2.81095 9.42267 2.72386C9.45351 2.63677 9.4991 2.55746 9.55682 2.49045C9.61454 2.42345 9.68327 2.37007 9.75908 2.33336C9.8349 2.29665 9.91631 2.27733 9.99867 2.27649C10.081 2.27566 10.1627 2.29334 10.2391 2.32852C10.3155 2.36369 10.385 2.41568 10.4438 2.4815C10.5025 2.54733 10.5493 2.62571 10.5815 2.71217C10.6137 2.79863 10.6307 2.89147 10.6314 2.98539C10.6351 3.75899 10.6351 4.53259 10.6314 5.30619C10.6339 5.40206 10.6194 5.49753 10.589 5.58694C10.5586 5.67635 10.5127 5.75789 10.4541 5.82674C10.3956 5.89559 10.3255 5.95034 10.2481 5.98777C10.1706 6.02519 10.0874 6.04453 10.0033 6.04463C9.64531 6.04463 9.37705 5.72288 9.37705 5.28931C9.37643 4.91376 9.37643 4.53329 9.37705 4.1479Z" fill="#94979E"/>
<path d="M6.88311 16.9914H5.5927C5.50556 16.9972 5.41834 16.9819 5.33672 16.9467C5.25511 16.9114 5.18093 16.8569 5.11904 16.7867C5.05715 16.7165 5.00893 16.6322 4.97754 16.5393C4.94615 16.4465 4.93228 16.3471 4.93685 16.2477C4.93685 15.3032 4.93685 14.3583 4.93685 13.4132C4.93159 13.3138 4.94488 13.2143 4.97583 13.1212C5.00679 13.0281 5.05472 12.9436 5.11644 12.8732C5.17817 12.8028 5.25229 12.7481 5.33391 12.7128C5.41553 12.6775 5.50279 12.6624 5.58992 12.6684H8.1948C8.27958 12.6626 8.36448 12.6771 8.44409 12.7108C8.52371 12.7445 8.59628 12.7968 8.6572 12.8643C8.71812 12.9318 8.76604 13.013 8.79791 13.1028C8.82978 13.1926 8.84491 13.2889 8.84231 13.3857C8.84725 14.3471 8.84725 15.3085 8.84231 16.2698C8.84231 16.7045 8.57221 16.9914 8.19017 16.9914H6.88311ZM7.57595 15.5557C7.58058 15.5395 7.58398 15.5229 7.58613 15.5061C7.58613 15.0651 7.58613 14.6231 7.58613 14.1822C7.58613 14.0978 7.55098 14.0904 7.49362 14.0904C7.09216 14.0904 6.6907 14.0904 6.29109 14.0904C6.20969 14.0904 6.18656 14.1178 6.18749 14.2096C6.18749 14.6263 6.18749 15.043 6.18749 15.4586C6.18923 15.4912 6.19263 15.5236 6.19766 15.5557H7.57595Z" fill="#94979E"/>
</g>
<defs>
<filter id="filter0_dd_8536_1676" x="-8.00684" y="-8.00072" width="36.0013" height="36.0019" filterUnits="userSpaceOnUse" color-interpolation-filters="sRGB">
<feFlood flood-opacity="0" result="BackgroundImageFix"/>
<feColorMatrix in="SourceAlpha" type="matrix" values="0 0 0 0 0 0 0 0 0 0 0 0 0 0 0 0 0 0 127 0" result="hardAlpha"/>
<feOffset/>
<feGaussianBlur stdDeviation="4"/>
<feComposite in2="hardAlpha" operator="out"/>
<feColorMatrix type="matrix" values="0 0 0 0 1 0 0 0 0 0.833333 0 0 0 0 0.925214 0 0 0 0.3 0"/>
<feBlend mode="normal" in2="BackgroundImageFix" result="effect1_dropShadow_8536_1676"/>
<feColorMatrix in="SourceAlpha" type="matrix" values="0 0 0 0 0 0 0 0 0 0 0 0 0 0 0 0 0 0 127 0" result="hardAlpha"/>
<feOffset/>
<feGaussianBlur stdDeviation="0.5"/>
<feComposite in2="hardAlpha" operator="out"/>
<feColorMatrix type="matrix" values="0 0 0 0 1 0 0 0 0 0.770833 0 0 0 0 0.897168 0 0 0 0.7 0"/>
<feBlend mode="normal" in2="effect1_dropShadow_8536_1676" result="effect2_dropShadow_8536_1676"/>
<feBlend mode="normal" in="SourceGraphic" in2="effect2_dropShadow_8536_1676" result="shape"/>
</filter>
<clipPath id="clip0_8536_1676">
<rect width="20" height="20" fill="white"/>
</clipPath>
</defs>
</svg>
