<svg width="24" height="24" viewBox="0 0 24 24" fill="none" xmlns="http://www.w3.org/2000/svg">
<g clip-path="url(#clip0_8536_1647)">
<g filter="url(#filter0_dd_8536_1647)">
<path d="M2.00145 15.9054C2.00145 15.5965 2.00529 15.2875 2.00145 14.9786C1.99687 14.9179 2.01161 14.8573 2.04354 14.8056C2.07547 14.7538 2.12297 14.7134 2.17923 14.6903C2.73612 14.4154 3.28965 14.1339 3.84702 13.86C3.88259 13.8467 3.91262 13.8217 3.93224 13.7892C3.95186 13.7566 3.95993 13.7184 3.95513 13.6808C3.95193 12.5596 3.95193 11.4393 3.95513 10.3197C3.96008 10.282 3.95213 10.2438 3.9326 10.2111C3.91306 10.1785 3.88307 10.1535 3.8475 10.14C3.29013 9.86614 2.7366 9.58457 2.17971 9.30973C2.12336 9.28666 2.07576 9.24633 2.04374 9.19454C2.01171 9.14275 1.99691 9.08215 2.00145 9.02143C2.00529 8.40352 2.00529 7.78561 2.00145 7.16769C1.99689 7.10517 2.01237 7.04283 2.04563 6.98969C2.07889 6.93656 2.12821 6.8954 2.18644 6.87219C2.79218 6.57332 3.39616 6.27077 3.99838 5.96454C4.05804 5.92981 4.12585 5.91151 4.1949 5.91151C4.26394 5.91151 4.33175 5.92981 4.39142 5.96454C4.94398 6.24803 5.50135 6.52191 6.05536 6.80204C6.08253 6.81801 6.11346 6.82643 6.14497 6.82643C6.17648 6.82643 6.20742 6.81801 6.23459 6.80204C7.39898 6.2168 8.56449 5.63364 9.73113 5.05257C9.75897 5.04179 9.78243 5.02206 9.79783 4.99649C9.81322 4.97092 9.81968 4.94095 9.81617 4.9113C9.81377 4.3645 9.81617 3.81818 9.81329 3.27138C9.80782 3.20557 9.82351 3.13973 9.85809 3.08346C9.89266 3.02719 9.9443 2.98344 10.0055 2.95858C10.6141 2.65876 11.2211 2.35444 11.8266 2.04565C11.8822 2.01383 11.9453 1.9971 12.0094 1.9971C12.0735 1.9971 12.1365 2.01383 12.1922 2.04565C12.8008 2.35476 13.4109 2.6602 14.0224 2.96195C14.0805 2.98593 14.1296 3.02774 14.1625 3.08135C14.1954 3.13497 14.2104 3.19763 14.2055 3.26033C14.2021 3.80713 14.2055 4.35345 14.2026 4.90025C14.1989 4.93315 14.2063 4.96635 14.2237 4.9945C14.2412 5.02265 14.2676 5.04412 14.2987 5.05545C15.4592 5.63204 16.6187 6.21215 17.777 6.79579C17.8055 6.81266 17.838 6.82156 17.8711 6.82156C17.9043 6.82156 17.9368 6.81266 17.9653 6.79579C18.5251 6.51182 19.0882 6.2341 19.647 5.94917C19.7013 5.9182 19.7626 5.90191 19.8251 5.90191C19.8875 5.90191 19.9489 5.9182 20.0031 5.94917C20.6175 6.26084 21.2335 6.56948 21.8511 6.87507C21.9029 6.89675 21.9466 6.93403 21.9763 6.98174C22.0059 7.02946 22.0199 7.08522 22.0163 7.14127C22.0163 7.76591 22.013 8.39055 22.0163 9.01518C22.0208 9.07602 22.0059 9.1367 21.9737 9.18851C21.9415 9.24031 21.8937 9.28057 21.8371 9.30348C21.2802 9.5788 20.7267 9.85989 20.1693 10.1342C20.1351 10.1465 20.1061 10.1699 20.0867 10.2006C20.0674 10.2314 20.0589 10.2677 20.0627 10.3039C20.0659 11.4311 20.0659 12.5582 20.0627 13.6851C20.0588 13.7195 20.0666 13.7543 20.0847 13.7839C20.1027 13.8135 20.1302 13.8362 20.1626 13.8485C20.7224 14.1247 21.2798 14.4068 21.8395 14.684C21.8947 14.7061 21.9415 14.7451 21.9732 14.7954C22.0049 14.8458 22.0198 14.9048 22.0159 14.9642C22.0127 15.5888 22.0127 16.2134 22.0159 16.8381C22.0202 16.8957 22.0063 16.9533 21.9761 17.0026C21.9459 17.0519 21.901 17.0905 21.8477 17.1129C21.2307 17.422 20.6149 17.7324 20.0002 18.0441C19.946 18.0751 19.8846 18.0914 19.8222 18.0914C19.7597 18.0914 19.6984 18.0751 19.6442 18.0441C19.0849 17.7592 18.5217 17.481 17.9624 17.1975C17.9353 17.1815 17.9043 17.1731 17.8728 17.1731C17.8413 17.1731 17.8104 17.1815 17.7832 17.1975C16.6188 17.7827 15.4533 18.3659 14.2867 18.947C14.2587 18.9582 14.2352 18.9785 14.2202 19.0046C14.2051 19.0308 14.1992 19.0612 14.2035 19.0911C14.2035 19.6379 14.2035 20.1842 14.2069 20.731C14.2123 20.7968 14.1965 20.8625 14.162 20.9187C14.1274 20.9748 14.0758 21.0185 14.0147 21.0433C13.4019 21.3419 12.7912 21.6457 12.1826 21.9548C12.1296 21.9849 12.0698 22.0006 12.0089 22.0006C11.948 22.0006 11.8882 21.9849 11.8352 21.9548C11.2205 21.6432 10.6043 21.3345 9.98675 21.0289C9.93185 21.0058 9.88556 20.9661 9.85436 20.9153C9.82317 20.8646 9.80864 20.8053 9.81281 20.7459C9.81281 20.1958 9.81281 19.6461 9.81569 19.0959C9.81976 19.0628 9.81247 19.0292 9.79502 19.0008C9.77756 18.9723 9.75097 18.9507 9.71959 18.9393C8.55873 18.3627 7.3993 17.7826 6.24131 17.1989C6.21148 17.1811 6.17735 17.1716 6.14257 17.1716C6.10779 17.1716 6.07367 17.1811 6.04383 17.1989C5.48358 17.4824 4.92092 17.7601 4.36211 18.0446C4.31079 18.0736 4.25286 18.0888 4.19394 18.0888C4.13501 18.0888 4.07708 18.0736 4.02576 18.0446C3.40721 17.7326 2.7877 17.4238 2.16722 17.1182C2.11384 17.0957 2.06893 17.0569 2.0389 17.0074C2.00888 16.9579 1.99526 16.9001 2.00001 16.8424C2.00433 16.5301 2.00145 16.2178 2.00145 15.9054ZM6.3893 15.7944C6.3893 16.0727 6.3893 16.3513 6.3893 16.6295C6.38516 16.6608 6.39168 16.6926 6.40781 16.7197C6.42394 16.7468 6.44874 16.7677 6.47819 16.779C7.64163 17.3581 8.80394 17.9397 9.96513 18.5236C9.99229 18.5396 10.0232 18.548 10.0547 18.548C10.0862 18.548 10.1172 18.5396 10.1443 18.5236C10.7046 18.2406 11.2677 17.9629 11.8261 17.678C11.8817 17.646 11.9447 17.6292 12.0089 17.6292C12.0731 17.6292 12.1361 17.646 12.1917 17.678C12.7477 17.9615 13.3079 18.2377 13.8648 18.5193C13.893 18.5366 13.9254 18.5461 13.9585 18.5467C13.9916 18.5473 14.0243 18.539 14.0532 18.5227C15.214 17.9387 16.3762 17.3572 17.5396 16.778C17.569 16.7667 17.5937 16.7459 17.6099 16.7189C17.6261 16.6919 17.6328 16.6603 17.629 16.6291C17.6261 16.0827 17.629 15.5359 17.6261 14.9896C17.6209 14.9253 17.6362 14.8609 17.6699 14.8058C17.7036 14.7508 17.7538 14.7078 17.8135 14.6831C18.3733 14.4068 18.9301 14.1243 19.4899 13.847C19.5197 13.8371 19.5453 13.8175 19.5627 13.7914C19.5801 13.7653 19.5883 13.7342 19.586 13.7029C19.5835 12.5657 19.5835 11.4285 19.586 10.2914C19.5887 10.2616 19.5814 10.2319 19.5653 10.2067C19.5492 10.1816 19.5252 10.1625 19.4971 10.1525C18.9407 9.87671 18.3872 9.59514 17.8298 9.32174C17.7653 9.29591 17.7108 9.25002 17.6744 9.19083C17.6379 9.13165 17.6215 9.06232 17.6275 8.99308C17.6323 8.45349 17.6275 7.91342 17.6309 7.37382C17.6353 7.34103 17.6286 7.3077 17.6117 7.27921C17.5949 7.25071 17.569 7.2287 17.5382 7.2167C16.3776 6.64011 15.2183 6.06016 14.0604 5.47684C14.0318 5.45997 13.9993 5.45107 13.9662 5.45107C13.933 5.45107 13.9005 5.45997 13.872 5.47684C13.3118 5.76033 12.7491 6.03806 12.1903 6.32251C12.1359 6.35338 12.0744 6.36961 12.0118 6.36961C11.9492 6.36961 11.8877 6.35338 11.8333 6.32251C11.2769 6.0395 10.7166 5.76369 10.1597 5.48117C10.1284 5.4626 10.0926 5.45281 10.0562 5.45281C10.0197 5.45281 9.98398 5.4626 9.95263 5.48117C8.80394 6.05776 7.6538 6.63323 6.50222 7.20757C6.46627 7.21988 6.43557 7.24403 6.41514 7.27607C6.39472 7.30811 6.38578 7.34613 6.38978 7.38391C6.39459 7.92687 6.38978 8.47031 6.39315 9.01326C6.39784 9.07599 6.38263 9.13859 6.34968 9.19217C6.31672 9.24574 6.2677 9.28755 6.2096 9.31165C5.65271 9.58697 5.09966 9.86902 4.54229 10.1424C4.50676 10.1558 4.47679 10.1807 4.45724 10.2133C4.4377 10.2458 4.42974 10.284 4.43466 10.3216C4.43755 11.4428 4.43755 12.563 4.43466 13.6822C4.43006 13.7183 4.43776 13.7548 4.45651 13.7859C4.47526 13.8171 4.50396 13.8409 4.53797 13.8537C5.09486 14.1281 5.64839 14.4101 6.20528 14.6845C6.26511 14.7089 6.31561 14.7517 6.3494 14.8067C6.3832 14.8618 6.39853 14.9262 6.39315 14.9906C6.38594 15.2577 6.3893 15.5259 6.3893 15.7944ZM4.44187 9.6379C4.45639 9.63556 4.47069 9.63202 4.48463 9.62733C4.93966 9.40054 5.39757 9.17423 5.84827 8.94263C5.86532 8.92916 5.87919 8.91211 5.88891 8.89268C5.89863 8.87325 5.90394 8.85191 5.90449 8.8302C5.90833 8.42658 5.90689 8.02297 5.90449 7.61935C5.90449 7.58812 5.8992 7.55689 5.89584 7.52326C5.88166 7.52502 5.86766 7.52808 5.85404 7.53239C5.39901 7.75918 4.9411 7.98549 4.48992 8.21613C4.47355 8.22814 4.46006 8.24364 4.45042 8.2615C4.44078 8.27937 4.43523 8.29916 4.43418 8.31943C4.43034 8.72977 4.4313 9.14011 4.43418 9.55045C4.43418 9.5764 4.43899 9.60042 4.44187 9.6379ZM19.5692 9.6379C19.5748 9.62332 19.5788 9.60818 19.5812 9.59274C19.5812 9.16029 19.5841 8.73121 19.5812 8.30069C19.576 8.27954 19.5663 8.25976 19.5527 8.24275C19.5391 8.22574 19.5219 8.2119 19.5024 8.20219C19.0767 7.98501 18.6486 7.76975 18.2209 7.55785C18.1916 7.54296 18.1609 7.53142 18.1248 7.51605C18.1194 7.5349 18.1155 7.55419 18.1133 7.57371C18.1133 8.00087 18.1104 8.4285 18.1133 8.85566C18.1189 8.87643 18.1288 8.89575 18.1425 8.91234C18.1562 8.92892 18.1733 8.94236 18.1926 8.95176C18.6217 9.17038 19.0527 9.3842 19.4837 9.59946C19.5087 9.6158 19.5341 9.62589 19.5692 9.63982V9.6379ZM3.93927 17.4531C3.94432 17.4344 3.94786 17.4152 3.94985 17.3959C3.94985 16.9717 3.95225 16.5474 3.94985 16.1231C3.94579 16.1017 3.93705 16.0815 3.92426 16.0639C3.91147 16.0463 3.89494 16.0317 3.87585 16.0212C3.44341 15.8007 3.01096 15.5845 2.57468 15.3678C2.54921 15.3553 2.52182 15.3471 2.48915 15.3346C2.48528 15.3551 2.48256 15.3758 2.48098 15.3966C2.48098 15.8175 2.48098 16.2384 2.48338 16.6593C2.48627 16.6809 2.494 16.7015 2.50598 16.7196C2.51796 16.7378 2.53389 16.753 2.55257 16.7641C2.98502 16.9851 3.41746 17.2008 3.85327 17.418C3.87825 17.4324 3.90612 17.4397 3.93927 17.4531ZM21.5378 15.3337C21.5185 15.3372 21.4996 15.3421 21.4811 15.3486C21.0285 15.5744 20.5753 15.7988 20.1256 16.0299C20.1076 16.0447 20.0931 16.0632 20.0831 16.0842C20.073 16.1052 20.0677 16.1282 20.0675 16.1515C20.0631 16.5488 20.0646 16.9457 20.0651 17.3431C20.0651 17.3762 20.0684 17.4094 20.0708 17.4507C20.096 17.4441 20.1207 17.436 20.1448 17.4262C20.5883 17.2052 21.0323 16.9851 21.4729 16.7588C21.4914 16.7447 21.5065 16.7267 21.5172 16.7061C21.5279 16.6855 21.5339 16.6628 21.5349 16.6396C21.5402 16.3408 21.5378 16.0424 21.5378 15.7435C21.5383 15.6119 21.5383 15.4802 21.5383 15.3337H21.5378ZM3.95129 9.64847C3.95129 9.59081 3.95129 9.55237 3.95129 9.5173C3.95129 9.12762 3.95129 8.73746 3.95129 8.34778C3.95501 8.31488 3.94756 8.28168 3.93013 8.25353C3.9127 8.22538 3.8863 8.20391 3.85519 8.19258C3.43236 7.98501 3.01193 7.77263 2.59053 7.56218C2.55882 7.54632 2.52615 7.53335 2.47714 7.51124C2.47714 7.56698 2.47714 7.60302 2.47714 7.63906C2.47714 8.02345 2.47954 8.41217 2.47714 8.79848C2.47242 8.83455 2.48013 8.87114 2.499 8.90223C2.51786 8.93333 2.54676 8.95707 2.58092 8.96954C2.98646 9.16654 3.38815 9.37123 3.79128 9.57256C3.83549 9.59466 3.88114 9.61484 3.95129 9.64847ZM20.0651 9.64319C20.103 9.62925 20.1189 9.62541 20.1333 9.6182C20.5792 9.39573 21.0241 9.17182 21.471 8.95176C21.5325 8.92149 21.5387 8.87776 21.5383 8.82011C21.5383 8.41986 21.5383 8.02009 21.5383 7.61888C21.5383 7.58716 21.5339 7.55545 21.531 7.51701C21.5147 7.52152 21.4987 7.52697 21.483 7.53335C21.0342 7.75726 20.5859 7.98309 20.1376 8.20604C20.1133 8.21702 20.0932 8.23574 20.0806 8.25929C20.068 8.28284 20.0636 8.3099 20.068 8.33625C20.068 8.70911 20.068 9.08197 20.068 9.45483C20.0651 9.51153 20.0651 9.56823 20.0651 9.64271V9.64319ZM10.3087 19.2362C10.3032 19.258 10.2991 19.2802 10.2967 19.3025C10.2967 19.7263 10.2967 20.1501 10.2995 20.5739C10.3038 20.5953 10.3127 20.6155 10.3256 20.633C10.3386 20.6505 10.3553 20.665 10.3745 20.6753C10.8036 20.8939 11.2346 21.1077 11.6656 21.3225C11.6935 21.3364 11.7237 21.3461 11.7583 21.36C11.7621 21.3419 11.7648 21.3236 11.7665 21.3052C11.7665 20.8814 11.7699 20.4576 11.7665 20.0338C11.7618 20.0111 11.7522 19.9897 11.7384 19.9711C11.7245 19.9525 11.7067 19.9372 11.6862 19.9262C11.3821 19.7686 11.0751 19.6172 10.769 19.4644L10.3087 19.2362ZM12.2489 21.3633C12.2883 21.3489 12.307 21.3441 12.3248 21.3355C12.7678 21.1149 13.2099 20.8925 13.6543 20.6743C13.7168 20.6436 13.7216 20.5998 13.7211 20.5427C13.7211 20.1458 13.7211 19.7494 13.7211 19.3525C13.7211 19.3179 13.7154 19.2838 13.712 19.2415C13.6803 19.253 13.664 19.2578 13.6495 19.265C13.2036 19.4875 12.7587 19.7114 12.3118 19.932C12.2891 19.9425 12.2706 19.9603 12.2591 19.9826C12.2476 20.0049 12.2438 20.0303 12.2484 20.055C12.2484 20.3466 12.2484 20.6383 12.2484 20.9299C12.2489 21.0688 12.2489 21.2072 12.2489 21.3633ZM13.4021 18.8398C13.3887 18.828 13.3744 18.8173 13.3593 18.8076C12.9269 18.5904 12.4944 18.3718 12.0581 18.1589C12.0148 18.1463 11.9682 18.1511 11.9284 18.1724C11.6147 18.3252 11.3038 18.4828 10.991 18.639L10.6104 18.8312C10.6292 18.8469 10.6492 18.8614 10.67 18.8744C11.0972 19.0887 11.5238 19.304 11.9529 19.5139C11.9742 19.5211 11.9966 19.5239 12.0189 19.5224C12.0413 19.5208 12.0631 19.5148 12.0831 19.5048C12.494 19.303 12.9 19.0973 13.3113 18.8922C13.3401 18.8768 13.368 18.859 13.4026 18.8393L13.4021 18.8398ZM2.80003 7.1158C2.81196 7.12568 2.82447 7.13482 2.83751 7.14319C3.26995 7.36037 3.70239 7.57899 4.13868 7.79233C4.18134 7.80637 4.22782 7.80291 4.26793 7.78272C4.67875 7.5814 5.08765 7.37575 5.49655 7.17058C5.5249 7.15616 5.55133 7.13886 5.58784 7.11724C5.56238 7.10042 5.54988 7.09033 5.53547 7.08313C5.10831 6.86883 4.68164 6.65309 4.25256 6.44359C4.22995 6.43588 4.20604 6.43272 4.18221 6.43429C4.15838 6.43586 4.1351 6.44212 4.11369 6.45272C3.69999 6.65549 3.28821 6.86306 2.87595 7.07015C2.85336 7.07928 2.83174 7.09466 2.80003 7.11388V7.1158ZM18.4218 7.1158C18.4698 7.14223 18.5011 7.15904 18.5309 7.17394C18.934 7.37575 19.3381 7.57611 19.7398 7.7808C19.7654 7.79602 19.7947 7.80406 19.8246 7.80406C19.8544 7.80406 19.8837 7.79602 19.9094 7.7808C20.3144 7.57515 20.7209 7.37334 21.127 7.16961C21.1553 7.15568 21.1817 7.1379 21.2192 7.11532C21.1832 7.09418 21.1616 7.07928 21.138 7.06727C20.7291 6.8621 20.3212 6.65885 19.9113 6.4508C19.8843 6.43473 19.8534 6.42624 19.8219 6.42624C19.7905 6.42624 19.7596 6.43473 19.7326 6.4508C19.3309 6.65549 18.9268 6.85537 18.5241 7.05766C18.4943 7.07352 18.4665 7.09081 18.4218 7.1158ZM10.6056 3.20267C10.6393 3.22429 10.6537 3.23439 10.6671 3.24159C11.0943 3.45589 11.521 3.67115 11.95 3.88113C11.9709 3.88867 11.9931 3.89201 12.0153 3.89093C12.0375 3.88986 12.0592 3.88441 12.0793 3.87488C12.493 3.67211 12.9048 3.46502 13.317 3.25841C13.3435 3.24496 13.3685 3.22814 13.4002 3.21036C13.3851 3.19756 13.369 3.18599 13.3521 3.17576C12.9197 2.96002 12.4925 2.74332 12.0606 2.53143C12.0219 2.51802 11.9795 2.52009 11.9424 2.53719C11.7314 2.63809 11.5234 2.74476 11.3143 2.84951L10.6056 3.20267ZM11.7564 5.74015C11.7617 5.71735 11.7655 5.69424 11.7679 5.67096C11.7679 5.24717 11.7703 4.82289 11.7655 4.3991C11.7612 4.37776 11.7521 4.35766 11.7391 4.34022C11.726 4.32278 11.7093 4.30843 11.6901 4.29819C11.2615 4.07909 10.8305 3.86575 10.3995 3.65001C10.3711 3.6356 10.3409 3.62551 10.3058 3.61109V4.76043C10.3538 4.73832 10.386 4.72343 10.4187 4.70757C10.5859 4.62445 10.7517 4.53988 10.9199 4.45868C10.9606 4.43667 11.0069 4.42722 11.053 4.43149C11.0991 4.43577 11.1429 4.45358 11.1788 4.4827C11.2134 4.50812 11.24 4.54272 11.2558 4.58256C11.2716 4.62241 11.2759 4.66589 11.2682 4.70805C11.262 4.7504 11.2449 4.79041 11.2185 4.82412C11.1922 4.85782 11.1574 4.88406 11.1178 4.90025C10.9516 4.98193 10.7863 5.06602 10.5955 5.16164L11.7564 5.74015ZM12.2571 5.74015L13.4203 5.15972C13.231 5.06362 13.0681 4.98338 12.9057 4.90121C12.7616 4.82866 12.7073 4.69124 12.7693 4.56487C12.8313 4.4385 12.9735 4.39862 13.1191 4.46877C13.2152 4.51682 13.3113 4.56487 13.4107 4.61292L13.7096 4.76283V3.60965C13.6813 3.62022 13.6654 3.62454 13.6505 3.63175C13.2046 3.85422 12.7582 4.07621 12.3147 4.30444C12.2966 4.31647 12.2815 4.33245 12.2704 4.35117C12.2593 4.36989 12.2526 4.39088 12.2508 4.41255C12.246 4.81953 12.2479 5.2265 12.2479 5.633C12.2479 5.66039 12.2527 5.69114 12.2571 5.74111V5.74015ZM4.4337 17.4675L5.6037 16.8828C5.41487 16.7867 5.2491 16.7064 5.08429 16.6219C4.94254 16.5493 4.89209 16.409 4.95696 16.2826C5.02182 16.1563 5.16069 16.1221 5.30051 16.1899C5.46532 16.2701 5.6282 16.3537 5.79253 16.4349C5.82424 16.4508 5.8574 16.4633 5.89776 16.483V15.3346C5.87524 15.3411 5.85311 15.3488 5.83145 15.3577C5.38844 15.5787 4.94591 15.8017 4.50145 16.0208C4.44043 16.051 4.43274 16.0938 4.43322 16.1519C4.43322 16.5421 4.43322 16.9327 4.43322 17.3229C4.4337 17.3628 4.4337 17.4027 4.4337 17.4675ZM18.1205 15.3351V16.4825C18.1686 16.4609 18.2012 16.446 18.2344 16.4297C18.4016 16.3465 18.5664 16.2591 18.736 16.1808C18.7732 16.1617 18.8147 16.1526 18.8564 16.1545C18.8982 16.1564 18.9387 16.1691 18.974 16.1914C19.0093 16.2137 19.0382 16.2449 19.0578 16.2818C19.0774 16.3187 19.0871 16.36 19.0858 16.4018C19.0844 16.4497 19.069 16.4961 19.0415 16.5354C19.014 16.5747 18.9756 16.6051 18.9311 16.6228C18.7653 16.7045 18.601 16.7881 18.4122 16.8828L19.5735 17.4622C19.5778 17.4392 19.5808 17.4159 19.5827 17.3926C19.5827 16.9717 19.5827 16.5507 19.5793 16.1298C19.5755 16.1069 19.5667 16.0851 19.5535 16.066C19.5403 16.0469 19.523 16.0309 19.5029 16.0193C19.0704 15.7983 18.638 15.5826 18.2022 15.3663C18.1787 15.3548 18.1532 15.3476 18.1205 15.3356V15.3351ZM2.78802 14.9257C2.83607 14.9541 2.86634 14.9738 2.89565 14.9867C3.29926 15.189 3.70383 15.3889 4.10552 15.5941C4.13285 15.6098 4.16393 15.6179 4.19547 15.6175C4.22701 15.6171 4.25785 15.6082 4.28475 15.5917C4.68692 15.387 5.09101 15.1866 5.49463 14.9843C5.52346 14.9699 5.55133 14.9526 5.59841 14.9257L4.43322 14.3448C4.43322 14.5538 4.43322 14.7364 4.43322 14.919C4.43472 14.9515 4.42961 14.9839 4.41821 15.0143C4.4068 15.0448 4.38934 15.0726 4.36688 15.0961C4.34442 15.1196 4.31743 15.1382 4.28754 15.151C4.25765 15.1638 4.22548 15.1703 4.19297 15.1703C4.16064 15.1703 4.12864 15.1638 4.09888 15.1512C4.06912 15.1385 4.04222 15.12 4.01978 15.0967C3.99735 15.0734 3.97985 15.0459 3.96833 15.0157C3.95681 14.9854 3.9515 14.9532 3.95273 14.9209C3.94888 14.7888 3.95273 14.6562 3.95273 14.524C3.95273 14.4717 3.9484 14.4198 3.94552 14.3501L2.78802 14.9257ZM20.0651 14.3453C20.0651 14.4106 20.0651 14.4505 20.0651 14.4894C20.0651 14.6389 20.0689 14.7883 20.0622 14.9372C20.0612 15.001 20.0349 15.0617 19.9891 15.106C19.9433 15.1503 19.8818 15.1747 19.8181 15.1737C19.7544 15.1726 19.6937 15.1463 19.6493 15.1006C19.605 15.0548 19.5807 14.9933 19.5817 14.9296C19.5788 14.8685 19.5817 14.8075 19.5817 14.7465C19.5817 14.6192 19.5817 14.4923 19.5817 14.3429L18.4247 14.9195C18.4371 14.9315 18.4504 14.9426 18.4645 14.9526C18.897 15.1703 19.3294 15.3889 19.7672 15.6018C19.7884 15.609 19.8108 15.6119 19.8331 15.6104C19.8555 15.6089 19.8773 15.6031 19.8974 15.5931C20.3116 15.3899 20.7238 15.1823 21.1361 14.9752C21.1616 14.9622 21.1841 14.9449 21.2235 14.9209L20.0651 14.3453Z" fill="#94979E"/>
</g>
<path d="M17.1317 11.9986C17.1317 12.6333 17.1317 13.268 17.1317 13.9027C17.1362 13.9635 17.1214 14.0241 17.0894 14.0759C17.0574 14.1276 17.0098 14.168 16.9534 14.191C15.3652 14.9829 13.7782 15.7767 12.1922 16.5724C12.1352 16.6048 12.0707 16.6218 12.0051 16.6218C11.9394 16.6218 11.875 16.6048 11.8179 16.5724C10.232 15.776 8.64491 14.9822 7.05672 14.191C7.00185 14.1681 6.95555 14.1286 6.92435 14.078C6.89314 14.0274 6.8786 13.9683 6.88278 13.909C6.88503 12.636 6.88503 11.363 6.88278 10.09C6.8786 10.0307 6.89314 9.97162 6.92435 9.92101C6.95555 9.87041 7.00185 9.83088 7.05672 9.80799C8.65388 9.01133 10.2502 8.21324 11.8458 7.4137C11.8959 7.38567 11.9524 7.37096 12.0099 7.37096C12.0673 7.37096 12.1238 7.38567 12.174 7.4137C13.7663 8.21228 15.3596 9.00893 16.9539 9.80367C17.0103 9.82666 17.058 9.86695 17.0902 9.91874C17.1223 9.97054 17.1371 10.0312 17.1326 10.092C17.1317 10.7291 17.1317 11.3638 17.1317 11.9986ZM16.6545 11.9986C16.6545 11.4316 16.6545 10.8651 16.6545 10.2981C16.6578 10.2669 16.6508 10.2354 16.6346 10.2085C16.6184 10.1816 16.5939 10.1608 16.5647 10.1491C15.0848 9.41174 13.6049 8.67163 12.125 7.92878C12.0894 7.90787 12.0489 7.89684 12.0077 7.89684C11.9665 7.89684 11.926 7.90787 11.8905 7.92878C10.4144 8.67034 8.93705 9.40966 7.45841 10.1467C7.42757 10.1582 7.4014 10.1795 7.38401 10.2074C7.36662 10.2354 7.35899 10.2683 7.36231 10.301C7.3652 11.4311 7.3652 12.5614 7.36231 13.6918C7.35842 13.7249 7.36578 13.7584 7.38322 13.7868C7.40065 13.8152 7.42714 13.8369 7.45841 13.8484C8.93705 14.5852 10.4144 15.3245 11.8905 16.0664C11.9274 16.0882 11.9696 16.0997 12.0125 16.0997C12.0554 16.0997 12.0976 16.0882 12.1346 16.0664C13.6081 15.3239 15.0843 14.5844 16.5633 13.848C16.5941 13.8358 16.62 13.8137 16.6368 13.7851C16.6536 13.7566 16.6603 13.7232 16.656 13.6904C16.6512 13.1272 16.6545 12.5636 16.6545 12.0005V11.9986Z" fill="#94979E"/>
</g>
<defs>
<filter id="filter0_dd_8536_1647" x="-6.00092" y="-6.0029" width="36.018" height="36.0035" filterUnits="userSpaceOnUse" color-interpolation-filters="sRGB">
<feFlood flood-opacity="0" result="BackgroundImageFix"/>
<feColorMatrix in="SourceAlpha" type="matrix" values="0 0 0 0 0 0 0 0 0 0 0 0 0 0 0 0 0 0 127 0" result="hardAlpha"/>
<feOffset/>
<feGaussianBlur stdDeviation="4"/>
<feComposite in2="hardAlpha" operator="out"/>
<feColorMatrix type="matrix" values="0 0 0 0 1 0 0 0 0 0.833333 0 0 0 0 0.925214 0 0 0 0.3 0"/>
<feBlend mode="normal" in2="BackgroundImageFix" result="effect1_dropShadow_8536_1647"/>
<feColorMatrix in="SourceAlpha" type="matrix" values="0 0 0 0 0 0 0 0 0 0 0 0 0 0 0 0 0 0 127 0" result="hardAlpha"/>
<feOffset/>
<feGaussianBlur stdDeviation="0.5"/>
<feComposite in2="hardAlpha" operator="out"/>
<feColorMatrix type="matrix" values="0 0 0 0 1 0 0 0 0 0.770833 0 0 0 0 0.897168 0 0 0 0.7 0"/>
<feBlend mode="normal" in2="effect1_dropShadow_8536_1647" result="effect2_dropShadow_8536_1647"/>
<feBlend mode="normal" in="SourceGraphic" in2="effect2_dropShadow_8536_1647" result="shape"/>
</filter>
<clipPath id="clip0_8536_1647">
<rect width="20.0168" height="20" fill="white" transform="translate(2 2)"/>
</clipPath>
</defs>
</svg>
