<svg width="24" height="24" viewBox="0 0 24 24" fill="none" xmlns="http://www.w3.org/2000/svg">
<g clip-path="url(#clip0_8536_1688)">
<g filter="url(#filter0_dd_8536_1688)">
<path d="M14.1248 5.14196H13.2325C12.6798 5.14343 12.147 4.93529 11.7417 4.55951C11.3364 4.18373 11.0886 3.66825 11.0484 3.11701C11.0297 2.87364 11.0484 2.6365 11.3604 2.6365C11.9693 2.61023 12.5793 2.64052 13.1825 2.72699C13.5788 2.80187 13.9345 3.09828 14.3401 3.31045C14.3619 3.26989 14.415 3.17317 14.4743 3.07957C14.6439 2.77767 14.8863 2.52302 15.1795 2.33882C15.4727 2.15462 15.8073 2.04672 16.1529 2.02496C16.6053 1.99376 17.0609 2 17.5164 1.99688C17.8284 1.99688 17.9532 2.16849 17.9345 2.47426C17.8932 3.01724 17.6529 3.52586 17.2596 3.90247C16.8663 4.27909 16.3477 4.49716 15.8034 4.51482C15.4914 4.51482 15.1794 4.51482 14.8425 4.51482V5.40094C18.4868 5.85024 20.9797 7.73167 21.7879 11.3479C22.5523 14.7613 21.1638 17.429 18.2902 19.4384C18.4493 19.4384 18.5679 19.4633 18.6864 19.4665C19.2044 19.4665 19.7286 19.4665 20.2465 19.5008C20.561 19.5271 20.8531 19.6739 21.0619 19.9105C21.2706 20.1472 21.3798 20.4554 21.3666 20.7707C21.3594 21.093 21.2277 21.4001 20.9991 21.6275C20.7706 21.855 20.4628 21.9851 20.1404 21.9906H19.9064C16.6552 21.9906 13.4072 21.9906 10.156 21.9906C9.86247 21.9814 9.57553 21.9011 9.31983 21.7566C8.53667 21.3198 7.75977 20.8518 7.01406 20.3775C6.7468 20.1946 6.42629 20.1057 6.10298 20.1248C5.79096 20.1467 5.45087 20.1248 5.1295 20.1248C5.00437 20.156 4.88525 20.2077 4.77692 20.2777C4.67441 20.3459 4.56017 20.3946 4.43995 20.4212C3.76289 20.4212 3.08894 20.4212 2.41187 20.4212C2.13418 20.4212 2.00001 20.2933 2.00001 20.0218C2.00001 18.4098 2.00001 16.7977 2.00001 15.1856C1.99209 15.1303 1.99723 15.0738 2.01502 15.0207C2.03281 14.9677 2.06276 14.9195 2.10247 14.8801C2.14218 14.8407 2.19056 14.8112 2.24374 14.7938C2.29692 14.7764 2.35343 14.7717 2.40875 14.78C3.07022 14.78 3.7348 14.78 4.39627 14.78C4.80188 14.78 4.84245 15.0515 4.84869 15.3791H7.30423C7.20126 14.6771 7.06086 13.9906 6.99221 13.3011C6.6802 9.64742 9.54759 6.08424 13.1888 5.54134C13.4321 5.5039 13.6818 5.49766 13.922 5.44774C14.0125 5.42902 14.0843 5.31982 14.1654 5.25429L14.1248 5.14196ZM13.5164 19.429C13.5965 19.4473 13.6779 19.4598 13.7598 19.4665C14.6303 19.4665 15.5008 19.4665 16.3713 19.4665C16.5007 19.4655 16.6291 19.4445 16.752 19.4041C19.7598 18.4119 21.791 15.0764 21.2824 11.9719C21.152 11.0701 20.8434 10.2032 20.3745 9.42183C19.9057 8.64049 19.2859 7.96032 18.5514 7.42099C17.8169 6.88167 16.9824 6.49399 16.0965 6.28055C15.2106 6.06711 14.2911 6.0322 13.3916 6.17785C9.30111 6.75819 6.61468 11.2169 7.99377 15.1201C8.00845 15.216 8.06011 15.3024 8.13767 15.3607C8.21523 15.419 8.31253 15.4447 8.40875 15.4321C8.99222 15.4165 9.5788 15.4009 10.1623 15.4321C10.4118 15.4499 10.6491 15.5472 10.8393 15.7098C11.5507 16.3775 12.2153 17.0889 12.9205 17.7629C13.401 18.2184 13.688 18.727 13.5164 19.429ZM4.85805 16.0624V19.4696C5.33231 19.4696 5.79409 19.4353 6.23403 19.4696C6.57617 19.4953 6.91001 19.5875 7.21686 19.741C8.0125 20.1747 8.77692 20.6771 9.56319 21.1232C9.78555 21.2482 10.0352 21.3168 10.2902 21.3229C13.4727 21.3229 16.6552 21.3229 19.8378 21.3229C19.9541 21.3317 20.0709 21.3317 20.1872 21.3229C20.3334 21.3157 20.471 21.2516 20.5707 21.1443C20.6704 21.0371 20.7242 20.8952 20.7208 20.7488C20.735 20.6013 20.6917 20.4539 20.5998 20.3376C20.5079 20.2213 20.3746 20.1451 20.2278 20.1248C20.1 20.1032 19.9703 20.0959 19.8409 20.103C17.6974 20.103 15.5538 20.103 13.4103 20.103C13.2079 20.1116 13.0093 20.1615 12.8269 20.2496C12.312 20.4836 11.7816 20.5148 11.3542 20.1498C10.8751 19.703 10.4199 19.2312 9.99065 18.7363L10.3713 18.259C10.8019 18.7051 11.1981 19.1357 11.6194 19.5413C11.7616 19.6735 11.9485 19.7472 12.1426 19.7475C12.3368 19.7479 12.5239 19.6749 12.6666 19.5432C12.8093 19.4116 12.8971 19.2309 12.9123 19.0373C12.9275 18.8438 12.8692 18.6516 12.7488 18.4992C12.6588 18.3892 12.5619 18.285 12.4587 18.1872C11.8346 17.5632 11.2106 16.908 10.5492 16.2933C10.392 16.1525 10.1919 16.0689 9.98129 16.0562C8.6178 16.0374 7.25431 16.0562 5.89081 16.0562L4.85805 16.0624ZM2.67396 15.4571V19.7535H4.14666V15.4571H2.67396ZM14.9111 3.8128C16.0967 4.08113 17.064 3.59751 17.2013 2.67083C15.8596 2.50234 15.0671 2.92667 14.9173 3.81591L14.9111 3.8128ZM11.791 3.30109C11.9033 4.23713 12.961 4.73947 14.0967 4.42746C13.8565 3.50078 13.0921 3.13261 11.7847 3.30421L11.791 3.30109Z" fill="#94979E"/>
</g>
<path d="M10.4243 12.9329C10.4243 12.3744 10.4243 11.8159 10.4243 11.2574C10.4149 11.1413 10.4394 11.025 10.4948 10.9226C10.5501 10.8201 10.634 10.7359 10.7363 10.6802C11.8762 9.93551 13.0098 9.17941 14.1372 8.41186C14.24 8.32438 14.3705 8.27633 14.5054 8.27633C14.6403 8.27633 14.7709 8.32438 14.8736 8.41186C15.9989 9.17941 17.1315 9.93551 18.2714 10.6802C18.3729 10.736 18.4562 10.8198 18.5115 10.9215C18.5668 11.0233 18.5918 11.1388 18.5834 11.2543C18.573 12.3713 18.573 13.4883 18.5834 14.6053C18.5918 14.7208 18.5668 14.8363 18.5115 14.9381C18.4562 15.0398 18.3729 15.1236 18.2714 15.1794C17.1315 15.9262 15.9979 16.6823 14.8705 17.4477C14.7667 17.5343 14.6358 17.5817 14.5007 17.5817C14.3656 17.5817 14.2348 17.5343 14.131 17.4477C13.0036 16.6823 11.871 15.9272 10.7332 15.1825C10.6322 15.1245 10.5495 15.0395 10.4943 14.9369C10.4392 14.8343 10.4138 14.7184 10.4212 14.6022C10.4243 14.0499 10.4243 13.4914 10.4243 12.9329ZM11.1107 12.9048H11.0764C11.0764 13.3853 11.0577 13.8658 11.0764 14.3463C11.0831 14.4295 11.1065 14.5104 11.1451 14.5844C11.1837 14.6583 11.2367 14.7238 11.301 14.7769C12.2745 15.4477 13.2636 16.0905 14.2433 16.752C14.3103 16.8103 14.3962 16.8425 14.4851 16.8425C14.574 16.8425 14.6599 16.8103 14.7269 16.752C15.7035 16.0874 16.6957 15.4446 17.6661 14.7738C17.7313 14.7206 17.7852 14.6548 17.8243 14.5802C17.8635 14.5057 17.8871 14.424 17.8939 14.3401C17.9147 13.3916 17.9147 12.4431 17.8939 11.4945C17.8874 11.4163 17.865 11.3402 17.8279 11.271C17.7909 11.2017 17.7401 11.1408 17.6786 11.092C16.6957 10.4181 15.6942 9.76599 14.7051 9.09517C14.6438 9.04013 14.5644 9.00969 14.482 9.00969C14.3996 9.00969 14.3202 9.04013 14.2589 9.09517C13.6599 9.50702 13.0514 9.90327 12.4461 10.3089C11.9937 10.6209 11.3666 10.8299 11.1481 11.2449C10.9297 11.6599 11.1076 12.3495 11.1076 12.9048H11.1107Z" fill="#94979E"/>
<path d="M15.4415 12.9454C15.4415 13.2044 15.4415 13.4633 15.4415 13.7223C15.4571 14.0749 15.2948 14.2153 14.9485 14.1966C14.6022 14.1779 14.3245 14.1966 14.0125 14.1966C13.7004 14.1966 13.532 14.078 13.5351 13.7442C13.5351 13.2013 13.5351 12.6552 13.5351 12.1123C13.5351 11.8253 13.6568 11.6755 13.95 11.6724C14.312 11.6724 14.677 11.6724 15.039 11.6724C15.0944 11.666 15.1505 11.6724 15.2029 11.6912C15.2554 11.7101 15.3028 11.7408 15.3415 11.7809C15.3801 11.8211 15.409 11.8697 15.4258 11.9228C15.4426 11.976 15.4469 12.0323 15.4384 12.0874C15.4384 12.3744 15.4415 12.6584 15.4415 12.9454ZM14.2153 12.3401V13.5101H14.755V12.3401H14.2153Z" fill="#94979E"/>
<path d="M12.0062 14.1716V11.7036H12.6084V14.1716H12.0062Z" fill="#94979E"/>
<path d="M16.3745 11.6942H16.9766V14.1685H16.3713L16.3745 11.6942Z" fill="#94979E"/>
</g>
<defs>
<filter id="filter0_dd_8536_1688" x="-6.0036" y="-6.00312" width="35.999" height="35.9938" filterUnits="userSpaceOnUse" color-interpolation-filters="sRGB">
<feFlood flood-opacity="0" result="BackgroundImageFix"/>
<feColorMatrix in="SourceAlpha" type="matrix" values="0 0 0 0 0 0 0 0 0 0 0 0 0 0 0 0 0 0 127 0" result="hardAlpha"/>
<feOffset/>
<feGaussianBlur stdDeviation="4"/>
<feComposite in2="hardAlpha" operator="out"/>
<feColorMatrix type="matrix" values="0 0 0 0 1 0 0 0 0 0.833333 0 0 0 0 0.925214 0 0 0 0.3 0"/>
<feBlend mode="normal" in2="BackgroundImageFix" result="effect1_dropShadow_8536_1688"/>
<feColorMatrix in="SourceAlpha" type="matrix" values="0 0 0 0 0 0 0 0 0 0 0 0 0 0 0 0 0 0 127 0" result="hardAlpha"/>
<feOffset/>
<feGaussianBlur stdDeviation="0.5"/>
<feComposite in2="hardAlpha" operator="out"/>
<feColorMatrix type="matrix" values="0 0 0 0 1 0 0 0 0 0.770833 0 0 0 0 0.897168 0 0 0 0.7 0"/>
<feBlend mode="normal" in2="effect1_dropShadow_8536_1688" result="effect2_dropShadow_8536_1688"/>
<feBlend mode="normal" in="SourceGraphic" in2="effect2_dropShadow_8536_1688" result="shape"/>
</filter>
<clipPath id="clip0_8536_1688">
<rect width="20" height="19.9938" fill="white" transform="translate(2 2)"/>
</clipPath>
</defs>
</svg>
