<svg width="36" height="36" viewBox="0 0 36 36" fill="none" xmlns="http://www.w3.org/2000/svg">
<g filter="url(#filter0_dd_8568_1699)">
<path d="M27.32 15.55L25.43 14.92L26.32 13.14C26.4102 12.9537 26.4404 12.744 26.4064 12.5398C26.3723 12.3356 26.2758 12.147 26.13 12L24 9.87C23.8522 9.72209 23.6618 9.62421 23.4555 9.59013C23.2493 9.55605 23.0375 9.58748 22.85 9.68L21.07 10.57L20.44 8.68C20.3735 8.483 20.2472 8.31163 20.0787 8.18975C19.9102 8.06787 19.7079 8.00155 19.5 8H16.5C16.2904 7.99946 16.0858 8.06482 15.9154 8.18685C15.7449 8.30887 15.6171 8.48138 15.55 8.68L14.92 10.57L13.14 9.68C12.9537 9.58978 12.744 9.55961 12.5398 9.59364C12.3356 9.62767 12.147 9.72423 12 9.87L9.87 12C9.72209 12.1478 9.62421 12.3382 9.59013 12.5445C9.55605 12.7507 9.58748 12.9625 9.68 13.15L10.57 14.93L8.68 15.56C8.483 15.6265 8.31163 15.7528 8.18975 15.9213C8.06787 16.0898 8.00155 16.2921 8 16.5V19.5C7.99946 19.7096 8.06482 19.9142 8.18685 20.0846C8.30887 20.2551 8.48138 20.3829 8.68 20.45L10.57 21.08L9.68 22.86C9.58978 23.0463 9.55961 23.256 9.59364 23.4602C9.62767 23.6644 9.72423 23.853 9.87 24L12 26.13C12.1478 26.2779 12.3382 26.3758 12.5445 26.4099C12.7507 26.444 12.9625 26.4125 13.15 26.32L14.93 25.43L15.56 27.32C15.6271 27.5186 15.7549 27.6911 15.9254 27.8132C16.0958 27.9352 16.3004 28.0005 16.51 28H19.51C19.7196 28.0005 19.9242 27.9352 20.0946 27.8132C20.2651 27.6911 20.3929 27.5186 20.46 27.32L21.09 25.43L22.87 26.32C23.0551 26.4079 23.2628 26.4369 23.4649 26.4029C23.667 26.3689 23.8538 26.2737 24 26.13L26.13 24C26.2779 23.8522 26.3758 23.6618 26.4099 23.4555C26.444 23.2493 26.4125 23.0375 26.32 22.85L25.43 21.07L27.32 20.44C27.517 20.3735 27.6884 20.2472 27.8103 20.0787C27.9321 19.9102 27.9985 19.7079 28 19.5V16.5C28.0005 16.2904 27.9352 16.0858 27.8132 15.9154C27.6911 15.7449 27.5186 15.6171 27.32 15.55ZM26 18.78L24.8 19.18C24.5241 19.2695 24.2709 19.418 24.0581 19.6151C23.8452 19.8122 23.6778 20.0533 23.5675 20.3216C23.4571 20.5899 23.4064 20.879 23.419 21.1688C23.4315 21.4586 23.5069 21.7422 23.64 22L24.21 23.14L23.11 24.24L22 23.64C21.7436 23.5122 21.4627 23.4411 21.1763 23.4313C20.89 23.4215 20.6049 23.4734 20.3403 23.5834C20.0758 23.6934 19.8379 23.8589 19.6429 24.0688C19.4479 24.2787 19.3003 24.5281 19.21 24.8L18.81 26H17.22L16.82 24.8C16.7305 24.5241 16.582 24.2709 16.3849 24.0581C16.1878 23.8452 15.9467 23.6778 15.6784 23.5675C15.4101 23.4571 15.1211 23.4064 14.8312 23.419C14.5414 23.4315 14.2578 23.5069 14 23.64L12.86 24.21L11.76 23.11L12.36 22C12.4931 21.7422 12.5685 21.4586 12.581 21.1688C12.5936 20.879 12.5429 20.5899 12.4325 20.3216C12.3222 20.0533 12.1548 19.8122 11.9419 19.6151C11.7291 19.418 11.4759 19.2695 11.2 19.18L10 18.78V17.22L11.2 16.82C11.4759 16.7305 11.7291 16.582 11.9419 16.3849C12.1548 16.1878 12.3222 15.9467 12.4325 15.6784C12.5429 15.4101 12.5936 15.1211 12.581 14.8312C12.5685 14.5414 12.4931 14.2578 12.36 14L11.79 12.89L12.89 11.79L14 12.36C14.2578 12.4931 14.5414 12.5685 14.8312 12.581C15.1211 12.5936 15.4101 12.5429 15.6784 12.4325C15.9467 12.3222 16.1878 12.1548 16.3849 11.9419C16.582 11.7291 16.7305 11.4759 16.82 11.2L17.22 10H18.78L19.18 11.2C19.2695 11.4759 19.418 11.7291 19.6151 11.9419C19.8122 12.1548 20.0533 12.3222 20.3216 12.4325C20.5899 12.5429 20.879 12.5936 21.1688 12.581C21.4586 12.5685 21.7422 12.4931 22 12.36L23.14 11.79L24.24 12.89L23.64 14C23.5122 14.2564 23.4411 14.5373 23.4313 14.8237C23.4215 15.11 23.4734 15.3951 23.5834 15.6597C23.6934 15.9242 23.8589 16.1621 24.0688 16.3571C24.2787 16.5521 24.5281 16.6997 24.8 16.79L26 17.19V18.78ZM18 14C17.2089 14 16.4355 14.2346 15.7777 14.6741C15.1199 15.1137 14.6072 15.7384 14.3045 16.4693C14.0017 17.2002 13.9225 18.0044 14.0769 18.7804C14.2312 19.5563 14.6122 20.269 15.1716 20.8284C15.731 21.3878 16.4437 21.7688 17.2196 21.9231C17.9956 22.0775 18.7998 21.9983 19.5307 21.6955C20.2616 21.3928 20.8864 20.8801 21.3259 20.2223C21.7654 19.5645 22 18.7911 22 18C22 16.9391 21.5786 15.9217 20.8284 15.1716C20.0783 14.4214 19.0609 14 18 14ZM18 20C17.6044 20 17.2178 19.8827 16.8889 19.6629C16.56 19.4432 16.3036 19.1308 16.1522 18.7654C16.0009 18.3999 15.9613 17.9978 16.0384 17.6098C16.1156 17.2219 16.3061 16.8655 16.5858 16.5858C16.8655 16.3061 17.2219 16.1156 17.6098 16.0384C17.9978 15.9613 18.3999 16.0009 18.7654 16.1522C19.1308 16.3036 19.4432 16.56 19.6629 16.8889C19.8827 17.2178 20 17.6044 20 18C20 18.5304 19.7893 19.0391 19.4142 19.4142C19.0391 19.7893 18.5304 20 18 20Z" fill="#94979E"/>
</g>
<defs>
<filter id="filter0_dd_8568_1699" x="0" y="0" width="36" height="36" filterUnits="userSpaceOnUse" color-interpolation-filters="sRGB">
<feFlood flood-opacity="0" result="BackgroundImageFix"/>
<feColorMatrix in="SourceAlpha" type="matrix" values="0 0 0 0 0 0 0 0 0 0 0 0 0 0 0 0 0 0 127 0" result="hardAlpha"/>
<feOffset/>
<feGaussianBlur stdDeviation="4"/>
<feComposite in2="hardAlpha" operator="out"/>
<feColorMatrix type="matrix" values="0 0 0 0 1 0 0 0 0 0.833333 0 0 0 0 0.925214 0 0 0 0.3 0"/>
<feBlend mode="normal" in2="BackgroundImageFix" result="effect1_dropShadow_8568_1699"/>
<feColorMatrix in="SourceAlpha" type="matrix" values="0 0 0 0 0 0 0 0 0 0 0 0 0 0 0 0 0 0 127 0" result="hardAlpha"/>
<feOffset/>
<feGaussianBlur stdDeviation="0.5"/>
<feComposite in2="hardAlpha" operator="out"/>
<feColorMatrix type="matrix" values="0 0 0 0 1 0 0 0 0 0.770833 0 0 0 0 0.897168 0 0 0 0.7 0"/>
<feBlend mode="normal" in2="effect1_dropShadow_8568_1699" result="effect2_dropShadow_8568_1699"/>
<feBlend mode="normal" in="SourceGraphic" in2="effect2_dropShadow_8568_1699" result="shape"/>
</filter>
</defs>
</svg>
