<svg width="24" height="24" viewBox="0 0 24 24" fill="none" xmlns="http://www.w3.org/2000/svg">
<g clip-path="url(#clip0_8536_1666)">
<g filter="url(#filter0_dd_8536_1666)">
<path d="M13.0702 17.5255H13.0702L13.0701 17.5215C13.0668 17.2723 12.9903 17.0295 12.8501 16.8234C12.7099 16.6172 12.5123 16.4568 12.2817 16.3621C12.0511 16.2674 11.7978 16.2425 11.5532 16.2905C11.3086 16.3386 11.0835 16.4575 10.9059 16.6324C10.7283 16.8073 10.606 17.0305 10.5542 17.2744C10.5024 17.5182 10.5234 17.7719 10.6146 18.0039C10.7058 18.2359 10.8632 18.436 11.0672 18.5793C11.2711 18.7226 11.5127 18.8028 11.7619 18.81L11.7619 18.81L11.7659 18.81C11.9361 18.8122 12.1051 18.7806 12.263 18.7171C12.4209 18.6535 12.5647 18.5593 12.686 18.4399C12.8073 18.3204 12.9037 18.1781 12.9696 18.0212C13.0356 17.8642 13.0697 17.6957 13.0702 17.5255ZM6.25345 14.2075H17.355L16.8615 20.8104H6.74694L6.25345 14.2075Z" stroke="#94979E" stroke-width="0.5" shape-rendering="crispEdges"/>
</g>
<path d="M5.9748 12.6676L6.15969 12.9038C6.27585 12.8129 6.39566 12.7261 6.52029 12.6392C7.04207 12.2778 7.42033 12.019 7.73314 11.8478C8.04291 11.6783 8.2596 11.6114 8.45648 11.6084C8.6527 11.6054 8.86747 11.6653 9.1745 11.8247C9.48528 11.986 9.86102 12.2329 10.3805 12.5788L10.3932 12.5873C10.6809 12.7791 10.915 12.9352 11.1141 13.0416C11.2423 13.1101 11.3683 13.1652 11.4982 13.1968C11.3236 13.1971 11.149 13.1973 10.9744 13.1976C9.39378 13.2002 7.81434 13.2029 6.23273 13.1864V13.1864H6.22961C6.08659 13.1864 5.94805 13.1938 5.82404 13.2211C5.80463 13.2254 5.78513 13.2302 5.76564 13.2358C5.89039 13.1225 6.02198 13.0118 6.15995 12.9036L5.9748 12.6676ZM5.9748 12.6676C4.66358 13.6961 3.86597 14.9715 4.01328 16.71L10.5468 12.3291C8.48575 10.9569 8.42072 10.9582 6.34905 12.3928C6.22165 12.4818 6.09689 12.572 5.9748 12.6676ZM17.5103 13.4957C17.9363 13.4917 18.1049 13.6165 18.0412 14.073C17.9827 14.4896 17.9558 14.9105 17.9288 15.3315C17.919 15.4845 17.9091 15.6375 17.8978 15.7903L17.5103 13.4957ZM17.5103 13.4957C16.4486 13.5063 15.3869 13.5028 14.3252 13.4992C13.7943 13.4975 13.2635 13.4957 12.7326 13.4957C12.1474 13.4957 11.562 13.4967 10.9766 13.4976C9.39532 13.5002 7.81317 13.5029 6.22961 13.4864L17.5103 13.4957ZM17.9021 19.827C17.9337 19.3968 17.9648 18.9708 17.9958 18.5477C18.0632 17.627 18.1295 16.7199 18.197 15.8126L18.197 15.8125C18.2088 15.653 18.2189 15.4959 18.2288 15.3407C18.2556 14.9235 18.2815 14.5192 18.3383 14.1146L18.3383 14.1145C18.3464 14.0564 18.3521 13.9969 18.3537 13.9374C18.9707 14.723 19.2091 15.6981 19.253 16.7779C19.274 17.3036 19.2815 17.8292 19.2753 18.3548L19.2753 18.3571C19.2728 18.9563 19.1322 19.3094 18.8996 19.5171C18.7012 19.6943 18.3885 19.8087 17.9021 19.827ZM16.4636 12.4188C16.8518 12.6728 17.2284 12.9192 17.5841 13.1962C17.5581 13.1956 17.5325 13.1955 17.5075 13.1957L17.5073 13.1957C16.4475 13.2063 15.3894 13.2028 14.3289 13.1992C13.7976 13.1975 13.2656 13.1957 12.7326 13.1957C12.4813 13.1957 12.23 13.1959 11.9788 13.1961C12.1076 13.1642 12.2319 13.1091 12.3578 13.0404C12.5536 12.9336 12.7824 12.7772 13.0626 12.5858L13.0745 12.5777C13.0747 12.5775 13.0749 12.5774 13.0751 12.5772C13.1456 12.5296 13.2124 12.489 13.2854 12.4446C13.3317 12.4164 13.3805 12.3867 13.4343 12.3528C13.5619 12.2722 13.7008 12.1774 13.8244 12.057L13.8247 12.0567C14.1511 11.7381 14.4569 11.6018 14.7469 11.5859C15.0401 11.5698 15.3653 11.674 15.7329 11.9303L15.733 11.9303C15.9794 12.102 16.2237 12.2618 16.4636 12.4188ZM4.3122 16.6845C4.21172 15.4983 4.5803 14.5421 5.28492 13.7262C5.2463 13.8829 5.25042 14.0564 5.26749 14.2259C5.40325 15.6324 5.50436 17.0414 5.60568 18.4533C5.63756 18.8976 5.66947 19.3422 5.70248 19.7871C5.37702 19.7902 5.11613 19.7089 4.92311 19.5731C4.68126 19.403 4.51084 19.123 4.46397 18.7225C4.41974 18.3249 4.39626 17.9406 4.37229 17.5482C4.35512 17.267 4.33769 16.9818 4.3122 16.6845Z" stroke="#94979E" stroke-width="0.6"/>
<path d="M12.5659 10.799L13.4705 11.1057C13.3394 11.1941 13.2107 11.2811 13.0839 11.3668C12.6362 11.6694 12.211 11.9569 11.7781 12.2383C11.7663 12.2445 11.7532 12.2482 11.7398 12.2491C11.7312 12.2498 11.7225 12.2492 11.714 12.2476C11.2595 11.9539 10.8115 11.6526 10.3373 11.3338C10.2243 11.2578 10.1098 11.1809 9.9934 11.1027L10.8833 10.8194L11.4284 10.6458L10.9757 10.2961C9.70063 9.31104 9.1756 8.05433 8.95679 6.56454C10.4167 6.29285 11.6069 5.59657 12.6368 4.59001C13.0516 5.41108 13.7133 5.92749 14.5604 6.20666C14.3331 7.81796 13.8996 9.21577 12.4827 10.2746L12.0259 10.616L12.5659 10.799Z" stroke="#94979E" stroke-width="0.6"/>
<path d="M14.5973 5.11821C14.254 4.99283 14.0012 4.8027 13.8079 4.56494C13.5456 4.24215 13.3762 3.81045 13.2651 3.27782L13.163 2.78814L12.7791 3.10885C12.5451 3.30432 12.3199 3.5055 12.1052 3.69724C11.9819 3.80733 11.8622 3.91432 11.7462 4.01532C11.4208 4.2988 11.1085 4.55092 10.7723 4.75675L10.7717 4.75716C10.4505 4.95497 10.0968 5.11126 9.70899 5.26465C9.56916 5.31996 9.42175 5.37602 9.26997 5.43374C9.13735 5.48418 9.00138 5.53589 8.86419 5.58948C8.84801 5.0236 8.91046 4.53894 9.06451 4.12271C9.25193 3.61634 9.58177 3.19245 10.1116 2.84045C10.6522 2.48126 11.1833 2.30582 11.7038 2.29981C12.2238 2.2938 12.7577 2.45657 13.3051 2.81392L13.3059 2.81439C14.1489 3.36124 14.5331 4.12624 14.5973 5.11821Z" stroke="#94979E" stroke-width="0.6"/>
<path d="M17.0059 22H6.60913C6.44191 21.5328 6.70336 21.505 7.03249 21.5063C8.55737 21.5063 10.0849 21.5063 11.6085 21.5063C13.2448 21.5063 14.8799 21.5063 16.5189 21.5063C16.8401 21.5063 17.1586 21.4877 17.0059 22Z" fill="#94979E"/>
</g>
<defs>
<filter id="filter0_dd_8536_1666" x="-2.01593" y="5.95753" width="27.6403" height="23.1029" filterUnits="userSpaceOnUse" color-interpolation-filters="sRGB">
<feFlood flood-opacity="0" result="BackgroundImageFix"/>
<feColorMatrix in="SourceAlpha" type="matrix" values="0 0 0 0 0 0 0 0 0 0 0 0 0 0 0 0 0 0 127 0" result="hardAlpha"/>
<feOffset/>
<feGaussianBlur stdDeviation="4"/>
<feComposite in2="hardAlpha" operator="out"/>
<feColorMatrix type="matrix" values="0 0 0 0 1 0 0 0 0 0.833333 0 0 0 0 0.925214 0 0 0 0.3 0"/>
<feBlend mode="normal" in2="BackgroundImageFix" result="effect1_dropShadow_8536_1666"/>
<feColorMatrix in="SourceAlpha" type="matrix" values="0 0 0 0 0 0 0 0 0 0 0 0 0 0 0 0 0 0 127 0" result="hardAlpha"/>
<feOffset/>
<feGaussianBlur stdDeviation="0.5"/>
<feComposite in2="hardAlpha" operator="out"/>
<feColorMatrix type="matrix" values="0 0 0 0 1 0 0 0 0 0.770833 0 0 0 0 0.897168 0 0 0 0.7 0"/>
<feBlend mode="normal" in2="effect1_dropShadow_8536_1666" result="effect2_dropShadow_8536_1666"/>
<feBlend mode="normal" in="SourceGraphic" in2="effect2_dropShadow_8536_1666" result="shape"/>
</filter>
<clipPath id="clip0_8536_1666">
<rect width="15.582" height="20" fill="white" transform="translate(4 2)"/>
</clipPath>
</defs>
</svg>
